<?xml version="1.0" encoding="UTF-8"?>
<svg id="_레이어_1" data-name="레이어 1" xmlns="http://www.w3.org/2000/svg" width="465.12" height="263.04" xmlns:xlink="http://www.w3.org/1999/xlink" viewBox="0 0 465.12 263.04">
  <defs>
    <style>
      .cls-1 {
        fill: #d0d4da;
      }

      .cls-2 {
        clip-path: url(#clippath-2);
      }

      .cls-3 {
        filter: url(#drop-shadow-3);
      }

      .cls-3, .cls-4, .cls-5 {
        fill: #fff;
      }

      .cls-6 {
        clip-path: url(#clippath-1);
      }

      .cls-4 {
        filter: url(#drop-shadow-2);
      }

      .cls-5 {
        filter: url(#drop-shadow-1);
      }

      .cls-7 {
        clip-path: url(#clippath);
      }

      .cls-8 {
        fill: #969daa;
      }

      .cls-9 {
        fill: #1ab1c7;
      }

      .cls-10, .cls-11 {
        fill: none;
      }

      .cls-11 {
        stroke: #e5e6ea;
      }

      .cls-12 {
        fill: #374150;
      }

      .cls-13 {
        fill: #1396a8;
      }
    </style>
    <filter id="drop-shadow-1" filterUnits="userSpaceOnUse">
      <feOffset dx="1" dy="1"/>
      <feGaussianBlur result="blur" stdDeviation="5"/>
      <feFlood flood-color="#6a717e" flood-opacity=".5"/>
      <feComposite in2="blur" operator="in"/>
      <feComposite in="SourceGraphic"/>
    </filter>
    <clipPath id="clippath">
      <rect class="cls-10" x="33.54" y="32.54" width="15.75" height="18"/>
    </clipPath>
    <filter id="drop-shadow-2" filterUnits="userSpaceOnUse">
      <feOffset dx="1" dy="1"/>
      <feGaussianBlur result="blur-2" stdDeviation="5"/>
      <feFlood flood-color="#6a717e" flood-opacity=".5"/>
      <feComposite in2="blur-2" operator="in"/>
      <feComposite in="SourceGraphic"/>
    </filter>
    <clipPath id="clippath-1">
      <rect class="cls-10" x="79.59" y="97.22" width="15.75" height="18"/>
    </clipPath>
    <filter id="drop-shadow-3" filterUnits="userSpaceOnUse">
      <feOffset dx="1" dy="1"/>
      <feGaussianBlur result="blur-3" stdDeviation="5"/>
      <feFlood flood-color="#6a717e" flood-opacity=".5"/>
      <feComposite in2="blur-3" operator="in"/>
      <feComposite in="SourceGraphic"/>
    </filter>
    <clipPath id="clippath-2">
      <rect class="cls-10" x="34.57" y="162.42" width="15.75" height="18"/>
    </clipPath>
  </defs>
  <rect class="cls-5" x="14.04" y="14.04" width="389" height="79" rx="11.5" ry="11.5"/>
  <rect class="cls-11" x="14.04" y="14.04" width="389" height="79" rx="11.5" ry="11.5"/>
  <g class="cls-7">
    <path class="cls-9" d="M41.41,32.54c-.62,0-1.12,.5-1.12,1.12v.67c-2.57,.52-4.5,2.79-4.5,5.51v.66c0,1.65-.61,3.25-1.71,4.49l-.26,.29c-.3,.33-.37,.81-.19,1.21,.18,.4,.58,.66,1.03,.66h13.5c.44,0,.84-.26,1.03-.66,.18-.4,.11-.88-.19-1.21l-.26-.29c-1.1-1.24-1.71-2.83-1.71-4.49v-.66c0-2.72-1.93-4.99-4.5-5.51v-.67c0-.62-.5-1.12-1.12-1.12Zm1.59,17.34c.42-.42,.66-.99,.66-1.59h-4.5c0,.6,.24,1.17,.66,1.59,.42,.42,.99,.66,1.59,.66s1.17-.24,1.59-.66Z"/>
  </g>
  <path class="cls-13" d="M73.99,34.89v7.8h-1.41v-7.8h1.41Zm-2.59,.22v7.47h-1.41v-2.92h-1.42v-1.17h1.42v-3.38h1.41Zm2.59,8.14v3.22h-7.89v1.14h8.38v1.12h-9.84v-3.31h7.91v-1.06h-7.94v-1.11h9.39Zm-5.09-7.09v1.14h-6.92v-1.14h2.72v-1.31h1.48v1.31h2.72Zm-3.45,1.64c1.7,0,2.92,.92,2.92,2.33s-1.22,2.3-2.92,2.28c-1.73,.02-2.94-.89-2.94-2.28s1.2-2.33,2.94-2.33Zm0,1.06c-.98-.02-1.64,.5-1.62,1.27-.02,.77,.64,1.25,1.62,1.25s1.61-.48,1.61-1.25-.66-1.28-1.61-1.27Zm17.23-2c0,2.28,2.44,4.44,5.12,4.92l-.69,1.23c-2.23-.48-4.3-1.95-5.2-3.92-.92,1.95-2.98,3.42-5.22,3.92l-.66-1.23c2.66-.5,5.08-2.64,5.08-4.92v-1.06h1.56v1.06Zm5.7,8.94v1.23h-12.81v-1.23h12.81Zm6.88-9.3c0,1.33-.13,2.62-.5,3.83h1.98v-5.09h1.41v12.95h-1.41v-6.66h-2.44c-.78,1.71-2.13,3.23-4.34,4.47l-.84-1.03c2.03-1.13,3.26-2.5,3.95-4.06l-3.75,.39-.2-1.28,4.38-.27c.17-.65,.27-1.33,.33-2.03h-4.02v-1.22h5.45Zm5.84-1.62v14h-1.41v-14h1.41Zm5.27,1.05c1.9,0,3.29,1.61,3.52,4.2h2.89v-5.25h1.47v14.03h-1.47v-7.58h-2.88c-.16,2.73-1.59,4.42-3.53,4.42-2.09,0-3.56-1.91-3.55-4.92-.02-3,1.45-4.91,3.55-4.91Zm0,1.33c-1.27,0-2.14,1.38-2.14,3.58s.88,3.59,2.14,3.59,2.14-1.38,2.14-3.59-.88-3.58-2.14-3.58Z"/>
  <path class="cls-12" d="M120.29,35.76c2.16,0,3.77,1.36,3.77,3.33,0,1.73-1.25,2.99-3.02,3.27v2.22c1.24-.05,2.49-.15,3.64-.3l.11,1.11c-2.95,.52-6.22,.53-8.64,.52l-.24-1.22c1.09,0,2.34-.02,3.64-.05v-2.28c-1.81-.26-3.05-1.52-3.03-3.27-.02-1.97,1.56-3.33,3.76-3.33Zm0,1.25c-1.34,.02-2.33,.83-2.33,2.08s.99,2.08,2.33,2.06c1.33,.02,2.3-.81,2.31-2.06-.02-1.25-.99-2.06-2.31-2.08Zm6.72-2.14v5.69h2.16v1.25h-2.16v7.06h-1.48v-14h1.48Zm13.97,1.06v.78c-.01,.94-.01,2.33-.36,4.14l-1.47-.14c.31-1.55,.35-2.68,.38-3.56h-5.61v-1.22h7.06Zm-3.58,3.14v2.89c1.5-.05,3.05-.16,4.45-.36l.09,1.08c-2.92,.52-6.27,.56-8.73,.58l-.14-1.2c.86,0,1.84-.02,2.86-.05v-2.94h1.47Zm6.86-4.2v4.45h1.92v1.25h-1.92v4.81h-1.52v-10.52h1.52Zm.45,12.5v1.2h-9.52v-4.14h1.49v2.94h8.03Zm8.65-11.52v4.22h-4.62v2.08c2.33,0,3.71-.08,5.36-.36l.16,1.2c-1.81,.31-3.31,.36-5.97,.36h-1.03v-4.42h4.61v-1.89h-4.64v-1.19h6.14Zm5-.97v10.3h-1.49v-3.67h-2.61v-1.22h2.61v-1.94h-2.61v-1.19h2.61v-2.28h1.49Zm.41,12.42v1.22h-9.61v-4.11h1.49v2.89h8.12Zm9.59-7.95v1.2h-2.73v1.77c1.24-.05,2.48-.14,3.62-.27l.11,1.09c-2.98,.41-6.27,.48-8.89,.48l-.2-1.19c1.2,0,2.53-.02,3.89-.06v-1.83h-2.64v-4.8h6.72v1.2h-5.23v2.39h5.36Zm3.45-4.48v10.5h-1.48v-10.5h1.48Zm.44,12.5v1.2h-9.67v-3.95h1.48v2.75h8.19Zm16.69-12.5v14h-1.5v-14h1.5Zm-4.17,1.5c0,4.09-1.75,7.66-6.55,9.95l-.78-1.2c3.73-1.77,5.54-4.3,5.83-7.56h-5.16v-1.19h6.66Zm10.9,2.06c-.02,2.48,1.42,5.02,3.51,6.03l-.92,1.19c-1.52-.79-2.7-2.36-3.31-4.23-.63,2-1.86,3.67-3.45,4.5l-.92-1.2c2.16-1.03,3.61-3.72,3.61-6.28v-2.39h1.49v2.39Zm6.05-3.56v5.58h2.25v1.27h-2.25v7.16h-1.48v-14h1.48Zm13.51,0v5.58h2.17v1.23h-2.17v7.17h-1.49v-13.98h1.49Zm-3.66,1.47c-.01,4.05-1.8,7.66-6.41,9.94l-.83-1.16c3.51-1.75,5.41-4.28,5.72-7.55h-5.02v-1.23h6.53Zm14.42,11.36c-2.09-.02-4.28-1.25-4.28-5.44,0-3.94,1.7-6.19,4.42-6.19,2.08,0,3.53,1.3,3.8,3.09h-1.7c-.22-.92-.95-1.59-2.09-1.59-1.75,0-2.77,1.53-2.77,4.08h.12c.61-.95,1.67-1.53,2.91-1.53,2.02,0,3.64,1.55,3.64,3.72s-1.61,3.88-4.05,3.86Zm-.02-1.44c1.38,0,2.39-1.06,2.39-2.39s-.98-2.34-2.34-2.34-2.44,1.09-2.45,2.36c.02,1.25,1.02,2.38,2.41,2.38Zm16.76-11.38v10.31h-1.48v-4.86h-2.91v-1.23h2.91v-4.22h1.48Zm-4.3,1.05c-.01,3.66-2.53,6.41-6.55,7.7l-.62-1.19c3.12-1.01,5.23-2.91,5.55-5.28h-4.83v-1.23h6.45Zm4.66,11.44v1.2h-9.38v-4.44h1.5v3.23h7.88Zm17.84-5.92v1.22h-12.78v-1.22h12.78Zm-1.48-2.42v1.2h-9.7v-4.86h9.61v1.22h-8.14v2.44h8.24Zm-4.92,4.73c3.01,0,4.83,.92,4.83,2.55s-1.81,2.55-4.83,2.53c-3.03,.02-4.86-.91-4.86-2.53s1.83-2.55,4.86-2.55Zm0,1.14c-2.14,.02-3.36,.52-3.36,1.41s1.22,1.39,3.36,1.39,3.34-.5,3.34-1.39-1.24-1.39-3.34-1.41Zm19.93-2.39v1.2h-12.81v-1.2h5.67v-1.33h-4.03v-3.56h8.08v-1.25h-8.11v-1.17h9.59v3.52h-8.09v1.31h8.38v1.16h-4.34v1.33h5.67Zm-1.53,2.19v4.06h-1.5v-2.88h-8.34v-1.19h9.84Zm10.59-3.91v1.22h-2.95v2.59c1.3-.06,2.6-.15,3.83-.28l.11,1.09c-3.08,.47-6.41,.5-9.06,.52l-.19-1.23c1.18,0,2.49,0,3.83-.05v-2.64h-2.81v-5.84h7.19v1.2h-5.72v3.42h5.78Zm3.23-5.92v14.03h-1.48v-14.03h1.48Zm6.9,9.23c0,1.21,.59,2.48,1.88,3.27,1.28-.84,1.89-2.2,1.89-3.27v-.75h1.45v.75c0,1.45,.95,2.88,2.81,3.47l-.77,1.11c-1.38-.49-2.31-1.43-2.8-2.59-.44,1.14-1.28,2.18-2.58,2.72-1.33-.51-2.17-1.5-2.61-2.66-.51,1.11-1.43,2.04-2.75,2.53l-.72-1.11c1.78-.62,2.75-2.11,2.77-3.47v-.75h1.42v.75Zm-1.09-8.47c1.8,0,3.25,1.07,3.58,2.66h2.73v-3.42h1.48v7.94h-1.48v-3.3h-2.72c-.29,1.63-1.75,2.73-3.59,2.73-2.11,0-3.66-1.36-3.66-3.3s1.55-3.31,3.66-3.31Zm0,1.25c-1.3,0-2.25,.83-2.23,2.06-.02,1.2,.94,2.06,2.23,2.06s2.22-.86,2.22-2.06-.95-2.06-2.22-2.06Zm12.68,6.38v1.48h6.58v-1.48h1.48v5.44h-9.53v-5.44h1.47Zm0,4.25h6.58v-1.61h-6.58v1.61Zm9.72-6.36v1.23h-12.77v-1.23h12.77Zm-5.62-5.53c0,1.61,2.23,3.17,4.92,3.5l-.53,1.17c-2.27-.32-4.25-1.39-5.14-2.88-.91,1.49-2.9,2.55-5.14,2.88l-.56-1.17c2.72-.34,4.94-1.84,4.94-3.5v-.59h1.52v.59Zm17.99-.75v14h-1.49v-14h1.49Zm-9.3,1.36v7.8c2.04-.02,4.19-.18,6.44-.64l.2,1.25c-2.48,.5-4.73,.67-6.94,.67h-1.17v-9.08h1.47Zm22.09-1.36v5.42h2.25v1.22h-2.25v7.39h-1.48v-14.03h1.48Zm-3.77,1.34v1.2h-5.06v6.77c2.35,0,4.12-.11,6.11-.47l.19,1.25c-2.19,.39-4.05,.47-6.66,.45h-1.12v-9.2h6.55Zm7.96,11.44c-.61,0-1.12-.5-1.11-1.11-.02-.61,.5-1.11,1.11-1.11s1.11,.5,1.11,1.11-.52,1.11-1.11,1.11Z"/>
  <path class="cls-8" d="M62.19,70.62v-1.22l4.38-6.75h1.86v6.7h1.35v1.27h-1.35v1.93h-1.42v-1.93h-4.81Zm1.59-1.27h3.23v-4.91h-.11l-3.12,4.83v.08Zm11.31-4.77c-.01,2.24,1.34,4.48,3.24,5.33l-.78,1.03c-1.41-.67-2.52-2.04-3.09-3.72-.57,1.79-1.7,3.27-3.17,3.99l-.79-1.09c1.93-.86,3.28-3.2,3.28-5.54v-2.09h1.31v2.09Zm5.65-3.12v12.28h-1.3v-12.28h1.3Zm11.3,0v3.62h1.78v1.08h-1.78v4.2h-1.31v-8.9h1.31Zm-3.32,.93c0,3.21-2.19,5.55-5.77,6.63l-.55-1.04c2.86-.86,4.65-2.49,4.91-4.51h-4.39v-1.08h5.8Zm3.83,10.01v1.05h-8.29v-4.01h1.31v2.95h6.97Zm15.04-10.92v8.97h-1.3v-4.61h-2.34v-1.05h2.34v-3.31h1.3Zm.33,10.92v1.05h-8.29v-3.81h1.3v2.76h6.99Zm-6.15-8.45c0,1.53,1.11,3.06,2.95,3.68l-.67,1.04c-1.37-.49-2.39-1.47-2.93-2.68-.53,1.35-1.61,2.43-3.06,2.95l-.67-1.05c1.89-.64,3.05-2.26,3.05-3.94v-.48h-2.65v-1.07h6.6v1.07h-2.62v.48Z"/>
  <path class="cls-1" d="M369.94,48.54l-1.4-1.4,5.6-5.6-5.6-5.6,1.4-1.4,5.6,5.6,5.6-5.6,1.4,1.4-5.6,5.6,5.6,5.6-1.4,1.4-5.6-5.6-5.6,5.6Z"/>
  <rect class="cls-4" x="60.09" y="78.72" width="389" height="79" rx="11.5" ry="11.5"/>
  <rect class="cls-11" x="60.09" y="78.72" width="389" height="79" rx="11.5" ry="11.5"/>
  <g class="cls-6">
    <path class="cls-9" d="M87.46,97.22c-.62,0-1.12,.5-1.12,1.12v.67c-2.57,.52-4.5,2.79-4.5,5.51v.66c0,1.65-.61,3.25-1.71,4.49l-.26,.29c-.3,.33-.37,.81-.19,1.21,.18,.4,.58,.66,1.03,.66h13.5c.44,0,.84-.26,1.03-.66,.18-.4,.11-.88-.19-1.21l-.26-.29c-1.1-1.24-1.71-2.83-1.71-4.49v-.66c0-2.72-1.93-4.99-4.5-5.51v-.67c0-.62-.5-1.12-1.12-1.12Zm1.59,17.34c.42-.42,.66-.99,.66-1.59h-4.5c0,.6,.24,1.17,.66,1.59,.42,.42,.99,.66,1.59,.66s1.17-.24,1.59-.66Z"/>
  </g>
  <path class="cls-13" d="M108.75,112.22v-11.31h1.72v5.39h.14l4.73-5.39h2.16l-4.56,5.09,4.58,6.22h-2.08l-3.64-5.05-1.33,1.53v3.52h-1.72Zm13.38-6.38v1.44h-5.02v-1.44h5.02Zm12.41-5.67v1.23c0,1.33,0,2.73-.39,4.64l-1.47-.12c.16-.76,.26-1.43,.31-2.06l-8.33,.39-.2-1.25,8.59-.23c.02-.48,.02-.92,.02-1.36v-.03h-8.25v-1.2h9.72Zm1.53,6.73v1.19h-12.73v-1.19h5.05v-1.97h1.5v1.97h6.19Zm-1.23,5.22v1.2h-9.92v-4.16h1.48v2.95h8.44Zm13.93-12.56v10.47h-1.41v-10.47h1.41Zm-2.75,.27v9.86h-1.41v-5.02h-1.73v-1.2h1.73v-3.64h1.41Zm3.16,12.22v1.2h-9.62v-4.38h1.5v3.17h8.12Zm-6.39-11.37v1.2h-3.91v1.75h3.36v1.16h-3.36v1.83c1.84,0,3.07-.05,4.5-.34l.14,1.19c-1.61,.31-2.94,.38-5.16,.38h-.91v-7.16h5.33Zm20.37,9.91v1.22h-12.81v-1.22h12.81Zm-1.19-8.88v1.2h-4.48c.06,2.1,2.12,3.84,4.98,4.3l-.59,1.19c-2.32-.41-4.24-1.6-5.14-3.31-.91,1.71-2.84,2.9-5.14,3.31l-.58-1.19c2.84-.46,4.89-2.2,4.97-4.3h-4.48v-1.2h4.5v-1.86h1.47v1.86h4.5Z"/>
  <path class="cls-12" d="M168.05,100.44c2.16,0,3.76,1.36,3.76,3.33,0,1.73-1.25,2.99-3.01,3.27v2.22c1.24-.05,2.48-.15,3.64-.3l.11,1.11c-2.95,.52-6.22,.53-8.64,.52l-.23-1.22c1.08,0,2.33-.02,3.64-.05v-2.28c-1.81-.26-3.05-1.52-3.03-3.27-.02-1.97,1.56-3.33,3.77-3.33Zm0,1.25c-1.34,.02-2.33,.83-2.33,2.08s.99,2.08,2.33,2.06c1.33,.02,2.3-.81,2.31-2.06-.02-1.25-.98-2.06-2.31-2.08Zm6.72-2.14v5.69h2.16v1.25h-2.16v7.06h-1.48v-14h1.48Zm13.97,1.06v.78c-.02,.94-.02,2.33-.36,4.14l-1.47-.14c.3-1.55,.35-2.68,.38-3.56h-5.61v-1.22h7.06Zm-3.58,3.14v2.89c1.5-.05,3.05-.16,4.45-.36l.09,1.08c-2.92,.52-6.27,.56-8.73,.58l-.14-1.2c.86,0,1.84-.02,2.86-.05v-2.94h1.47Zm6.86-4.2v4.45h1.92v1.25h-1.92v4.81h-1.52v-10.52h1.52Zm.45,12.5v1.2h-9.52v-4.14h1.48v2.94h8.03Zm8.65-11.52v4.22h-4.62v2.08c2.33,0,3.71-.08,5.36-.36l.16,1.2c-1.81,.31-3.31,.36-5.97,.36h-1.03v-4.42h4.61v-1.89h-4.64v-1.19h6.14Zm5-.97v10.3h-1.49v-3.67h-2.61v-1.22h2.61v-1.94h-2.61v-1.19h2.61v-2.28h1.49Zm.41,12.42v1.22h-9.61v-4.11h1.48v2.89h8.12Zm9.59-7.95v1.2h-2.73v1.77c1.24-.05,2.48-.14,3.62-.27l.11,1.09c-2.98,.41-6.26,.48-8.89,.48l-.2-1.19c1.2,0,2.53-.02,3.89-.06v-1.83h-2.64v-4.8h6.72v1.2h-5.23v2.39h5.36Zm3.45-4.48v10.5h-1.48v-10.5h1.48Zm.44,12.5v1.2h-9.67v-3.95h1.48v2.75h8.19Zm16.69-12.5v14h-1.5v-14h1.5Zm-4.17,1.5c0,4.09-1.75,7.66-6.55,9.95l-.78-1.2c3.73-1.77,5.54-4.3,5.83-7.56h-5.16v-1.19h6.66Zm10.9,2.06c-.02,2.48,1.42,5.02,3.52,6.03l-.92,1.19c-1.52-.79-2.7-2.36-3.31-4.23-.63,2-1.86,3.67-3.45,4.5l-.92-1.2c2.16-1.03,3.61-3.72,3.61-6.28v-2.39h1.48v2.39Zm6.05-3.56v5.58h2.25v1.27h-2.25v7.16h-1.49v-14h1.49Zm13.51,0v5.58h2.17v1.23h-2.17v7.17h-1.49v-13.98h1.49Zm-3.66,1.47c-.02,4.05-1.8,7.66-6.41,9.94l-.83-1.16c3.51-1.75,5.41-4.28,5.72-7.55h-5.02v-1.23h6.53Zm14.42,11.36c-2.09-.02-4.28-1.25-4.28-5.44,0-3.94,1.7-6.19,4.42-6.19,2.08,0,3.53,1.3,3.8,3.09h-1.7c-.22-.92-.95-1.59-2.09-1.59-1.75,0-2.77,1.53-2.77,4.08h.12c.61-.95,1.67-1.53,2.91-1.53,2.02,0,3.64,1.55,3.64,3.72s-1.61,3.88-4.05,3.86Zm-.02-1.44c1.38,0,2.39-1.06,2.39-2.39s-.98-2.34-2.34-2.34-2.44,1.09-2.45,2.36c.02,1.25,1.02,2.38,2.41,2.38Zm16.76-11.38v10.31h-1.49v-4.86h-2.91v-1.23h2.91v-4.22h1.49Zm-4.3,1.05c-.02,3.66-2.53,6.41-6.55,7.7l-.62-1.19c3.12-1.01,5.23-2.91,5.55-5.28h-4.83v-1.23h6.45Zm4.66,11.44v1.2h-9.38v-4.44h1.5v3.23h7.88Zm17.84-5.92v1.22h-12.78v-1.22h12.78Zm-1.48-2.42v1.2h-9.7v-4.86h9.61v1.22h-8.14v2.44h8.23Zm-4.92,4.73c3.02,0,4.83,.92,4.83,2.55s-1.81,2.55-4.83,2.53c-3.03,.02-4.86-.91-4.86-2.53s1.83-2.55,4.86-2.55Zm0,1.14c-2.14,.02-3.36,.52-3.36,1.41s1.22,1.39,3.36,1.39,3.34-.5,3.34-1.39-1.23-1.39-3.34-1.41Zm19.93-2.39v1.2h-12.81v-1.2h5.67v-1.33h-4.03v-3.56h8.08v-1.25h-8.11v-1.17h9.59v3.52h-8.09v1.31h8.38v1.16h-4.34v1.33h5.67Zm-1.53,2.19v4.06h-1.5v-2.88h-8.34v-1.19h9.84Zm10.59-3.91v1.22h-2.95v2.59c1.3-.06,2.6-.15,3.83-.28l.11,1.09c-3.08,.47-6.41,.5-9.06,.52l-.19-1.23c1.18,0,2.48,0,3.83-.05v-2.64h-2.81v-5.84h7.19v1.2h-5.72v3.42h5.78Zm3.23-5.92v14.03h-1.48v-14.03h1.48Zm6.9,9.23c0,1.21,.59,2.48,1.88,3.27,1.28-.84,1.89-2.2,1.89-3.27v-.75h1.45v.75c0,1.45,.95,2.88,2.81,3.47l-.77,1.11c-1.38-.49-2.31-1.43-2.8-2.59-.44,1.14-1.28,2.18-2.58,2.72-1.33-.51-2.17-1.5-2.61-2.66-.51,1.11-1.43,2.04-2.75,2.53l-.72-1.11c1.78-.62,2.75-2.11,2.77-3.47v-.75h1.42v.75Zm-1.09-8.47c1.8,0,3.25,1.07,3.58,2.66h2.73v-3.42h1.48v7.94h-1.48v-3.3h-2.72c-.29,1.63-1.75,2.73-3.59,2.73-2.11,0-3.66-1.36-3.66-3.3s1.55-3.31,3.66-3.31Zm0,1.25c-1.3,0-2.25,.83-2.23,2.06-.02,1.2,.94,2.06,2.23,2.06s2.22-.86,2.22-2.06-.95-2.06-2.22-2.06Zm12.68,6.38v1.48h6.58v-1.48h1.48v5.44h-9.53v-5.44h1.47Zm0,4.25h6.58v-1.61h-6.58v1.61Zm9.72-6.36v1.23h-12.76v-1.23h12.76Zm-5.62-5.53c0,1.61,2.24,3.17,4.92,3.5l-.53,1.17c-2.27-.32-4.25-1.39-5.14-2.88-.91,1.49-2.9,2.55-5.14,2.88l-.56-1.17c2.72-.34,4.94-1.84,4.94-3.5v-.59h1.51v.59Zm17.99-.75v14h-1.49v-14h1.49Zm-9.3,1.36v7.8c2.04-.02,4.19-.18,6.44-.64l.2,1.25c-2.48,.5-4.73,.67-6.94,.67h-1.17v-9.08h1.47Zm22.09-1.36v5.42h2.25v1.22h-2.25v7.39h-1.48v-14.03h1.48Zm-3.77,1.34v1.2h-5.06v6.77c2.35,0,4.12-.11,6.11-.47l.19,1.25c-2.19,.39-4.05,.47-6.66,.45h-1.12v-9.2h6.55Zm7.96,11.44c-.61,0-1.12-.5-1.11-1.11-.02-.61,.5-1.11,1.11-1.11s1.11,.5,1.11,1.11-.52,1.11-1.11,1.11Z"/>
  <path class="cls-8" d="M111.98,137.36c-2.05,0-3.51-1.11-3.57-2.72h1.53c.05,.88,.92,1.42,2.02,1.42,1.19,0,2.06-.66,2.06-1.61s-.82-1.68-2.23-1.68h-.85v-1.23h.85c1.12,0,1.91-.63,1.91-1.57s-.67-1.52-1.72-1.52c-1,0-1.87,.55-1.91,1.45h-1.45c.04-1.61,1.53-2.71,3.38-2.71,1.94,0,3.17,1.23,3.16,2.69,.01,1.12-.68,1.94-1.75,2.2v.07c1.35,.19,2.13,1.09,2.13,2.35,0,1.65-1.52,2.86-3.57,2.86Zm15.72-4.81v1.04h-4.87v2.26h-1.29v-2.26h-5.06v-1.04h11.21Zm-1.24,4.53v1.05h-8.57v-3.35h1.29v2.3h7.29Zm-7.21-10.55v1.49h5.67v-1.49h1.3v4.95h-8.26v-4.95h1.29Zm0,3.91h5.67v-1.45h-5.67v1.45Zm22.42-4.28v8.97h-1.3v-4.61h-2.34v-1.05h2.34v-3.31h1.3Zm.33,10.92v1.05h-8.29v-3.81h1.3v2.76h6.99Zm-6.15-8.45c0,1.53,1.11,3.06,2.95,3.68l-.67,1.04c-1.37-.49-2.39-1.47-2.93-2.68-.53,1.35-1.61,2.43-3.06,2.95l-.67-1.05c1.89-.64,3.05-2.26,3.05-3.94v-.48h-2.65v-1.07h6.6v1.07h-2.62v.48Z"/>
  <path class="cls-1" d="M415.99,113.22l-1.4-1.4,5.6-5.6-5.6-5.6,1.4-1.4,5.6,5.6,5.6-5.6,1.4,1.4-5.6,5.6,5.6,5.6-1.4,1.4-5.6-5.6-5.6,5.6Z"/>
  <rect class="cls-3" x="15.07" y="143.92" width="389" height="103" rx="11.5" ry="11.5"/>
  <rect class="cls-11" x="15.07" y="143.92" width="389" height="103" rx="11.5" ry="11.5"/>
  <g class="cls-2">
    <path class="cls-9" d="M42.44,162.42c-.62,0-1.12,.5-1.12,1.12v.67c-2.57,.52-4.5,2.79-4.5,5.51v.66c0,1.65-.61,3.25-1.71,4.49l-.26,.29c-.3,.33-.37,.81-.19,1.21,.18,.4,.58,.66,1.03,.66h13.5c.44,0,.84-.26,1.03-.66,.18-.4,.11-.88-.19-1.21l-.26-.29c-1.1-1.24-1.71-2.83-1.71-4.49v-.66c0-2.72-1.93-4.99-4.5-5.51v-.67c0-.62-.5-1.12-1.12-1.12Zm1.59,17.34c.42-.42,.66-.99,.66-1.59h-4.5c0,.6,.24,1.17,.66,1.59,.42,.42,.99,.66,1.59,.66s1.17-.24,1.59-.66Z"/>
  </g>
  <path class="cls-13" d="M75.02,164.77v8.23h-1.41v-3.5h-1.59v3.38h-1.42v-7.88h1.42v3.27h1.59v-3.5h1.41Zm0,8.89v4.92h-9.36v-4.92h9.36Zm-7.88,1.17v2.55h6.42v-2.55h-6.42Zm.17-7.19c0,1.55,1,3.08,2.78,3.75l-.7,1.12c-1.33-.51-2.25-1.48-2.75-2.67-.49,1.29-1.43,2.36-2.78,2.91l-.7-1.09c1.78-.73,2.75-2.38,2.75-4.02v-.02h-2.44v-1.2h2.44v-1.56h1.41v1.56h2.41v1.2h-2.41v.02Zm20.91-2.89v14h-1.5v-14h1.5Zm-3.33,1.44v1.22h-1.45v6.5c.73-.05,1.45-.11,2.14-.19l.08,1.09c-3.03,.48-6.36,.53-8.94,.55l-.17-1.23,1.84-.02v-6.7h-1.47v-1.22h7.97Zm-5.06,7.89c.7-.02,1.43-.04,2.16-.08v-6.59h-2.16v6.67Zm21.93-9.31v10.28h-1.48v-5.25h-2.73c-.32,1.69-1.77,2.83-3.58,2.83-2.11,0-3.67-1.45-3.67-3.5s1.56-3.48,3.67-3.48c1.86,0,3.33,1.19,3.61,2.94h2.7v-3.81h1.48Zm.38,12.48v1.2h-9.47v-4.45h1.48v3.25h7.98Zm-8.17-10.31c-1.3,0-2.25,.88-2.25,2.19s.95,2.22,2.25,2.22,2.22-.91,2.22-2.22-.95-2.19-2.22-2.19Zm16.74-.2c0,2.28,2.44,4.44,5.12,4.92l-.69,1.23c-2.23-.48-4.3-1.95-5.2-3.92-.92,1.95-2.98,3.42-5.22,3.92l-.66-1.23c2.66-.5,5.08-2.64,5.08-4.92v-1.06h1.56v1.06Zm5.7,8.94v1.23h-12.81v-1.23h12.81Zm12.32-10.92v14.03h-1.48v-14.03h1.48Zm-4.28,1.27v5.11h-5.03v3.06c2.26,0,4.25-.11,6.59-.5l.14,1.22c-2.48,.42-4.59,.52-7.06,.52h-1.19v-5.48h5.03v-2.72h-5.05v-1.2h6.56Zm17.26,.16v1.5c0,1.81,0,3.78-.52,6.77l-1.51-.14c.56-2.8,.56-4.86,.56-6.62v-.28h-8.25v-1.22h9.72Zm1.67,9.36v1.23h-12.77v-1.23h12.77Z"/>
  <path class="cls-12" d="M148.34,165.64c2.16,0,3.76,1.36,3.76,3.33,0,1.73-1.25,2.99-3.01,3.27v2.22c1.24-.05,2.48-.15,3.64-.3l.11,1.11c-2.95,.52-6.22,.53-8.64,.52l-.23-1.22c1.08,0,2.33-.02,3.64-.05v-2.28c-1.81-.26-3.05-1.52-3.03-3.27-.02-1.97,1.56-3.33,3.77-3.33Zm0,1.25c-1.34,.02-2.33,.83-2.33,2.08s.99,2.08,2.33,2.06c1.33,.02,2.3-.81,2.31-2.06-.02-1.25-.98-2.06-2.31-2.08Zm6.72-2.14v5.69h2.16v1.25h-2.16v7.06h-1.48v-14h1.48Zm13.97,1.06v.78c-.02,.94-.02,2.33-.36,4.14l-1.47-.14c.3-1.55,.35-2.68,.38-3.56h-5.61v-1.22h7.06Zm-3.58,3.14v2.89c1.5-.05,3.05-.16,4.45-.36l.09,1.08c-2.92,.52-6.26,.56-8.73,.58l-.14-1.2c.86,0,1.84-.02,2.86-.05v-2.94h1.47Zm6.86-4.2v4.45h1.92v1.25h-1.92v4.81h-1.52v-10.52h1.52Zm.45,12.5v1.2h-9.52v-4.14h1.49v2.94h8.03Zm8.65-11.52v4.22h-4.62v2.08c2.33,0,3.71-.08,5.36-.36l.16,1.2c-1.81,.31-3.31,.36-5.97,.36h-1.03v-4.42h4.61v-1.89h-4.64v-1.19h6.14Zm5-.97v10.3h-1.49v-3.67h-2.61v-1.22h2.61v-1.94h-2.61v-1.19h2.61v-2.28h1.49Zm.41,12.42v1.22h-9.61v-4.11h1.48v2.89h8.12Zm9.59-7.95v1.2h-2.73v1.77c1.24-.05,2.48-.14,3.62-.27l.11,1.09c-2.98,.41-6.26,.48-8.89,.48l-.2-1.19c1.19,0,2.53-.02,3.89-.06v-1.83h-2.64v-4.8h6.72v1.2h-5.23v2.39h5.36Zm3.45-4.48v10.5h-1.48v-10.5h1.48Zm.44,12.5v1.2h-9.67v-3.95h1.48v2.75h8.19Zm16.69-12.5v14h-1.5v-14h1.5Zm-4.17,1.5c0,4.09-1.75,7.66-6.55,9.95l-.78-1.2c3.73-1.77,5.54-4.3,5.83-7.56h-5.16v-1.19h6.66Zm10.9,2.06c-.02,2.48,1.42,5.02,3.51,6.03l-.92,1.19c-1.52-.79-2.7-2.36-3.31-4.23-.63,2-1.86,3.67-3.45,4.5l-.92-1.2c2.16-1.03,3.61-3.72,3.61-6.28v-2.39h1.49v2.39Zm6.05-3.56v5.58h2.25v1.27h-2.25v7.16h-1.49v-14h1.49Zm13.51,0v5.58h2.17v1.23h-2.17v7.17h-1.48v-13.98h1.48Zm-3.66,1.47c-.02,4.05-1.8,7.66-6.41,9.94l-.83-1.16c3.51-1.75,5.41-4.28,5.72-7.55h-5.02v-1.23h6.53Zm10.08,9v-1.39l5-7.72h2.12v7.66h1.55v1.45h-1.55v2.2h-1.62v-2.2h-5.5Zm1.81-1.45h3.69v-5.61h-.12l-3.56,5.52v.09Zm19.46-9v10.31h-1.48v-4.86h-2.91v-1.23h2.91v-4.22h1.48Zm-4.3,1.05c-.01,3.66-2.53,6.41-6.55,7.7l-.62-1.19c3.12-1.01,5.24-2.91,5.55-5.28h-4.83v-1.23h6.45Zm4.66,11.44v1.2h-9.38v-4.44h1.5v3.23h7.88Zm17.85-5.92v1.22h-12.78v-1.22h12.78Zm-1.49-2.42v1.2h-9.7v-4.86h9.61v1.22h-8.14v2.44h8.23Zm-4.92,4.73c3.01,0,4.83,.92,4.83,2.55s-1.81,2.55-4.83,2.53c-3.03,.02-4.86-.91-4.86-2.53s1.83-2.55,4.86-2.55Zm0,1.14c-2.14,.02-3.36,.52-3.36,1.41s1.22,1.39,3.36,1.39,3.34-.5,3.34-1.39-1.23-1.39-3.34-1.41Zm19.93-2.39v1.2h-12.81v-1.2h5.67v-1.33h-4.03v-3.56h8.08v-1.25h-8.11v-1.17h9.59v3.52h-8.09v1.31h8.38v1.16h-4.34v1.33h5.67Zm-1.53,2.19v4.06h-1.5v-2.88h-8.34v-1.19h9.84Zm10.59-3.91v1.22h-2.95v2.59c1.3-.06,2.6-.15,3.83-.28l.11,1.09c-3.08,.47-6.41,.5-9.06,.52l-.19-1.23c1.18,0,2.48,0,3.83-.05v-2.64h-2.81v-5.84h7.19v1.2h-5.72v3.42h5.78Zm3.23-5.92v14.03h-1.48v-14.03h1.48Zm6.9,9.23c0,1.21,.59,2.48,1.88,3.27,1.28-.84,1.89-2.2,1.89-3.27v-.75h1.45v.75c0,1.45,.95,2.88,2.81,3.47l-.77,1.11c-1.38-.49-2.31-1.43-2.8-2.59-.44,1.14-1.28,2.18-2.58,2.72-1.33-.51-2.17-1.5-2.61-2.66-.51,1.11-1.43,2.04-2.75,2.53l-.72-1.11c1.78-.62,2.75-2.11,2.77-3.47v-.75h1.42v.75Zm-1.09-8.47c1.81,0,3.25,1.07,3.58,2.66h2.74v-3.42h1.48v7.94h-1.48v-3.3h-2.72c-.29,1.63-1.75,2.73-3.59,2.73-2.11,0-3.66-1.36-3.66-3.3s1.55-3.31,3.66-3.31Zm0,1.25c-1.3,0-2.25,.83-2.23,2.06-.02,1.2,.94,2.06,2.23,2.06s2.22-.86,2.22-2.06-.95-2.06-2.22-2.06Zm12.68,6.38v1.48h6.58v-1.48h1.49v5.44h-9.53v-5.44h1.47Zm0,4.25h6.58v-1.61h-6.58v1.61Zm9.72-6.36v1.23h-12.77v-1.23h12.77Zm-5.62-5.53c0,1.61,2.23,3.17,4.92,3.5l-.53,1.17c-2.27-.32-4.25-1.39-5.14-2.88-.91,1.49-2.9,2.55-5.14,2.88l-.56-1.17c2.72-.34,4.94-1.84,4.94-3.5v-.59h1.52v.59Zm-262.84,23.25v14h-1.48v-14h1.48Zm-9.3,1.36v7.8c2.04-.02,4.19-.18,6.44-.64l.2,1.25c-2.48,.5-4.73,.67-6.94,.67h-1.17v-9.08h1.47Zm22.09-1.36v5.42h2.25v1.22h-2.25v7.39h-1.48v-14.03h1.48Zm-3.77,1.34v1.2h-5.06v6.77c2.35,0,4.12-.11,6.11-.47l.19,1.25c-2.19,.39-4.05,.47-6.66,.45h-1.12v-9.2h6.55Zm7.96,11.44c-.61,0-1.12-.5-1.11-1.11-.02-.61,.5-1.11,1.11-1.11s1.11,.5,1.11,1.11-.52,1.11-1.11,1.11Z"/>
  <path class="cls-8" d="M67.2,216.53v9.9h-1.52v-8.39h-.05l-2.37,1.54v-1.44l2.46-1.61h1.48Zm5.68,10.04c-2.3,0-3.64-1.85-3.64-5.09s1.37-5.09,3.64-5.09,3.64,1.87,3.64,5.09-1.35,5.09-3.64,5.09Zm0-1.3c1.34,0,2.13-1.31,2.13-3.79s-.81-3.81-2.13-3.81-2.13,1.35-2.13,3.81,.79,3.79,2.13,3.79Zm8.99-6.81c-.01,2.24,1.34,4.48,3.24,5.33l-.78,1.03c-1.41-.67-2.52-2.04-3.09-3.72-.57,1.79-1.7,3.27-3.17,3.99l-.79-1.09c1.93-.86,3.28-3.2,3.28-5.54v-2.09h1.31v2.09Zm5.65-3.12v12.28h-1.3v-12.28h1.3Zm11.3,0v3.62h1.78v1.08h-1.78v4.2h-1.31v-8.9h1.31Zm-3.32,.93c0,3.21-2.19,5.55-5.77,6.63l-.55-1.04c2.86-.86,4.65-2.49,4.91-4.51h-4.39v-1.08h5.8Zm3.83,10.01v1.05h-8.29v-4.01h1.31v2.95h6.97Zm15.04-10.92v8.97h-1.3v-4.61h-2.34v-1.05h2.34v-3.31h1.3Zm.33,10.92v1.05h-8.28v-3.81h1.3v2.76h6.99Zm-6.15-8.45c0,1.53,1.11,3.06,2.95,3.68l-.67,1.04c-1.37-.49-2.39-1.47-2.93-2.68-.53,1.35-1.61,2.43-3.06,2.95l-.67-1.05c1.89-.64,3.05-2.26,3.05-3.94v-.48h-2.65v-1.07h6.6v1.07h-2.62v.48Z"/>
  <path class="cls-1" d="M370.97,178.42l-1.4-1.4,5.6-5.6-5.6-5.6,1.4-1.4,5.6,5.6,5.6-5.6,1.4,1.4-5.6,5.6,5.6,5.6-1.4,1.4-5.6-5.6-5.6,5.6Z"/>
</svg>