<?xml version="1.0" encoding="UTF-8"?>
<svg id="_레이어_1" data-name="레이어 1" xmlns="http://www.w3.org/2000/svg" width="525.6" height="417.36" xmlns:xlink="http://www.w3.org/1999/xlink" viewBox="0 0 525.6 417.36">
  <defs>
    <style>
      .cls-1 {
        fill: #d0d4da;
      }

      .cls-2 {
        fill: #101827;
      }

      .cls-3, .cls-4, .cls-5 {
        fill: #fff;
      }

      .cls-6 {
        fill: #f3f4f6;
      }

      .cls-7 {
        fill: #6a717f;
      }

      .cls-8 {
        fill: #6e7683;
      }

      .cls-4 {
        filter: url(#drop-shadow-2);
      }

      .cls-5 {
        filter: url(#drop-shadow-1);
      }

      .cls-9 {
        fill: #969daa;
      }

      .cls-10 {
        fill: #1ab1c7;
      }

      .cls-11 {
        stroke: #e5e6ea;
      }

      .cls-11, .cls-12, .cls-13 {
        fill: none;
      }

      .cls-12 {
        stroke: #1ab1c7;
      }

      .cls-13 {
        stroke: #969daa;
      }
    </style>
    <filter id="drop-shadow-1" filterUnits="userSpaceOnUse">
      <feOffset dx="1" dy="1"/>
      <feGaussianBlur result="blur" stdDeviation="5"/>
      <feFlood flood-color="#6a717e" flood-opacity=".5"/>
      <feComposite in2="blur" operator="in"/>
      <feComposite in="SourceGraphic"/>
    </filter>
    <filter id="drop-shadow-2" filterUnits="userSpaceOnUse">
      <feOffset dx="1" dy="1"/>
      <feGaussianBlur result="blur-2" stdDeviation="5"/>
      <feFlood flood-color="#6a717e" flood-opacity=".5"/>
      <feComposite in2="blur-2" operator="in"/>
      <feComposite in="SourceGraphic"/>
    </filter>
  </defs>
  <rect class="cls-5" x="14.12" y="14.14" width="385" height="231" rx="15.5" ry="15.5"/>
  <rect class="cls-11" x="14.12" y="14.14" width="385" height="231" rx="15.5" ry="15.5"/>
  <path class="cls-2" d="M41.74,46.5v14.14h-2.93v-14.14h2.93Zm1.24,2.42v-2.42h11.58v2.42h-4.34v11.72h-2.91v-11.72h-4.34Zm30.64,4.92v1.97h-12.58v-9.84h12.44v2.01h-9.9v1.88h9.49v1.95h-9.49v2.03h10.04Zm1.78,4.49v2.03h-16.27v-2.03h16.27Zm7.41-12.34v5.64h-3.85v1.93c1.91,0,3.33-.12,5-.41l.23,1.95c-2.03,.39-3.79,.43-6.43,.43h-1.23v-5.7h3.87v-1.91h-3.89v-1.93h6.29Zm8.28-1.31v13.36h-2.36v-13.36h2.36Zm-3.63,.29v12.64h-2.34v-6.46h-1.64v-2.03h1.64v-4.14h2.34Zm4.08,15.16v1.99h-12.5v-5.43h2.5v3.44h10Zm15.45-7.25v1.99h-12.58v-8.73h12.44v2.01h-9.98v4.73h10.12Zm1.78,5.33v2.05h-16.27v-2.05h16.27Z"/>
  <circle class="cls-9" cx="367.62" cy="53.64" r="2"/>
  <circle class="cls-9" cx="359.62" cy="53.64" r="2"/>
  <circle class="cls-9" cx="351.62" cy="53.64" r="2"/>
  <path class="cls-6" d="M37.62,93.64c0-4.42,3.58-8,8-8h55c4.42,0,8,3.58,8,8v16c0,4.42-3.58,8-8,8H45.62c-4.42,0-8-3.58-8-8v-16Z"/>
  <path class="cls-7" d="M57.75,94.99v10.17h-1.48v-10.17h1.48Zm.42,12.48v1.2h-9.58v-4.55h1.5v3.34h8.08Zm-8.02-11.55c2.11,0,3.72,1.44,3.72,3.47s-1.61,3.48-3.72,3.48-3.73-1.42-3.73-3.48,1.62-3.47,3.73-3.47Zm0,1.3c-1.31,0-2.28,.89-2.28,2.17s.97,2.19,2.28,2.19,2.27-.88,2.27-2.19-.98-2.17-2.27-2.17Zm15.81,6.55c3.03,0,4.94,.95,4.95,2.59-.02,1.62-1.92,2.59-4.95,2.58-3,.02-4.92-.95-4.92-2.58s1.92-2.59,4.92-2.59Zm0,1.12c-2.12,0-3.45,.55-3.44,1.47-.02,.91,1.31,1.44,3.44,1.44s3.47-.53,3.48-1.44c-.02-.92-1.34-1.47-3.48-1.47Zm4.84-9.23v1.17c0,1.12,0,2.28-.39,3.72l-1.45-.16c.38-1.43,.38-2.46,.38-3.55h-8.19v-1.19h9.66Zm1.59,5.75v1.2h-12.73v-1.2h5.11v-2.62h1.45v2.62h6.17Zm5.91-2.31c0,2.34,1.53,4.77,3.69,5.69l-.81,1.16c-1.65-.73-2.96-2.27-3.61-4.14-.65,2-1.97,3.7-3.59,4.5l-.86-1.17c2.11-.98,3.67-3.62,3.69-6.03v-1.48h-3.2v-1.23h7.89v1.23h-3.19v1.48Zm6.44-4.12v14h-1.48v-14h1.48Zm13.23,3.78v1.2h-9.61v-4.73h1.47v3.53h8.14Zm1.47,2.69v1.22h-12.78v-1.22h12.78Zm-6.41,2.36c3.02,0,4.83,.92,4.83,2.55s-1.81,2.56-4.83,2.56-4.86-.92-4.86-2.56,1.83-2.55,4.86-2.55Zm0,1.16c-2.14,.02-3.36,.48-3.36,1.39s1.22,1.42,3.36,1.42,3.34-.53,3.34-1.42-1.23-1.38-3.34-1.39Z"/>
  <path class="cls-6" d="M115.62,93.64c0-4.42,3.58-8,8-8h55c4.42,0,8,3.58,8,8v16c0,4.42-3.58,8-8,8h-55c-4.42,0-8-3.58-8-8v-16Z"/>
  <path class="cls-7" d="M130.04,96.55v3.64h1.88v-4.95h1.42v13.05h-1.42v-6.88h-1.88v3.88h-5.44v-8.73h5.44Zm-4.03,1.17v6.38h2.64v-6.38h-2.64Zm10.17-2.75v14h-1.42v-14h1.42Zm8.65,1.23v1.22h-5.09v2.7h4.81v1.19h-4.81v3.14c2.34,0,4.06-.11,6.09-.44l.14,1.2c-2.16,.36-4.03,.44-6.61,.44h-1.12v-9.45h6.59Zm3.72-1.23v5.52h2.25v1.25h-2.25v7.23h-1.48v-14h1.48Zm14.27,0v14.03h-1.47v-7.7h-3.09v4.23h-6.56v-9.48h1.5v3.58h3.61v-3.58h1.45v4.03h3.09v-5.11h1.47Zm-9.62,9.34h3.61v-3.52h-3.61v3.52Zm18.57-7.36c0,2.28,2.44,4.44,5.12,4.92l-.69,1.23c-2.23-.48-4.3-1.95-5.2-3.92-.92,1.95-2.98,3.42-5.22,3.92l-.66-1.23c2.66-.5,5.08-2.64,5.08-4.92v-1.06h1.56v1.06Zm5.7,8.94v1.23h-12.81v-1.23h12.81Z"/>
  <path class="cls-6" d="M193.62,93.64c0-4.42,3.58-8,8-8h55c4.42,0,8,3.58,8,8v16c0,4.42-3.58,8-8,8h-55c-4.42,0-8-3.58-8-8v-16Z"/>
  <path class="cls-7" d="M209.25,96.96c0,2.28,2.44,4.44,5.12,4.92l-.69,1.23c-2.23-.48-4.3-1.95-5.2-3.92-.92,1.95-2.98,3.42-5.22,3.92l-.66-1.23c2.66-.5,5.08-2.64,5.08-4.92v-1.06h1.56v1.06Zm5.7,8.94v1.23h-12.81v-1.23h12.81Zm7.88-9.69v1.22h-5.09v2.7h4.81v1.19h-4.81v3.14c2.34,0,4.06-.11,6.09-.44l.14,1.2c-2.16,.36-4.03,.44-6.61,.44h-1.12v-9.45h6.59Zm3.72-1.23v5.52h2.25v1.25h-2.25v7.23h-1.48v-14h1.48Zm13.96,7.45v1.19h-9.75v-7.48h9.61v1.2h-8.11v1.89h7.81v1.17h-7.81v2.03h8.25Zm1.45,3.56v1.22h-12.81v-1.22h12.81Zm4.57-10.38c1.84-.02,3.27,1.05,3.58,2.62h2.74v-3.27h1.48v7.52h-1.48v-3.03h-2.72c-.31,1.61-1.74,2.69-3.59,2.69-2.14,0-3.67-1.34-3.67-3.28s1.53-3.27,3.67-3.25Zm0,1.23c-1.33,0-2.25,.81-2.25,2.02s.92,2.03,2.25,2.03,2.22-.83,2.22-2.03-.92-2.02-2.22-2.02Zm.14,6.31v1.62h6.17v-1.62h1.48v5.64h-9.12v-5.64h1.47Zm0,4.42h6.17v-1.62h-6.17v1.62Z"/>
  <path class="cls-6" d="M271.62,93.64c0-4.42,3.58-8,8-8h55c4.42,0,8,3.58,8,8v16c0,4.42-3.58,8-8,8h-55c-4.42,0-8-3.58-8-8v-16Z"/>
  <path class="cls-7" d="M291.32,95.6v1.11c0,1.09,0,2.31-.31,3.89h1.88v1.2h-12.73v-1.2h9.38c.12-.58,.2-1.1,.25-1.59l-8.2,.34-.19-1.16,8.45-.23c.02-.41,.02-.8,.02-1.17h-8.11v-1.19h9.58Zm.09,7.38v3.39h-8.3v1.27h8.8v1.17h-10.28v-3.55h8.31v-1.14h-8.34v-1.14h9.81Zm13.13-8v5.47h2.25v1.25h-2.25v7.31h-1.47v-14.03h1.47Zm-3.95,1.27v5.14h-4.91v3.03c2.41,0,4.19-.09,6.23-.47l.14,1.2c-2.19,.41-4.08,.5-6.7,.52h-1.14v-5.48h4.91v-2.73h-4.94v-1.2h6.41Zm19.35,6.69v1.23h-5.72v4.81h-1.45v-4.81h-5.64v-1.23h12.81Zm-6.44-7.42c2.95,0,4.99,1.2,4.99,3.11s-2.03,3.08-4.99,3.08-4.98-1.19-4.98-3.08,2.02-3.11,4.98-3.11Zm0,1.19c-2.08,.02-3.47,.73-3.45,1.92-.01,1.17,1.38,1.89,3.45,1.89s3.47-.72,3.47-1.89-1.39-1.91-3.47-1.92Zm18.49,4.92v1.22h-9.75v-6.61h9.62v1.22h-8.16v4.17h8.28Zm1.47,4.28v1.23h-12.81v-1.23h12.81Z"/>
  <path class="cls-6" d="M37.62,133.64c0-4.42,3.58-8,8-8h15c4.42,0,8,3.58,8,8v16c0,4.42-3.58,8-8,8h-15c-4.42,0-8-3.58-8-8v-16Z"/>
  <path class="cls-7" d="M47.75,147.64h-1.83l4.06-11.31h1.98l4.08,11.31h-1.83l-1.03-2.98h-4.41l-1.03,2.98Zm1.53-4.42h3.41l-1.67-4.83h-.08l-1.66,4.83Zm9.6-6.89v11.31h-1.72v-11.31h1.72Z"/>
  <path class="cls-6" d="M75.62,133.64c0-4.42,3.58-8,8-8h41c4.42,0,8,3.58,8,8v16c0,4.42-3.58,8-8,8h-41c-4.42,0-8-3.58-8-8v-16Z"/>
  <path class="cls-7" d="M88.42,137.66c0,1.53,.98,3.08,2.8,3.76l-.78,1.14c-1.3-.5-2.22-1.45-2.72-2.61-.52,1.31-1.48,2.44-2.83,3.02l-.81-1.16c1.89-.83,2.91-2.59,2.91-4.16v-1.81h1.44v1.81Zm7.66-2.67v8.61h-1.41v-3.75h-1.64v3.31h-1.38v-7.92h1.38v3.39h1.64v-3.64h1.41Zm-4.69,8.87c2.92,0,4.75,.95,4.77,2.55-.02,1.59-1.84,2.55-4.77,2.53-2.92,.01-4.75-.94-4.73-2.53-.02-1.59,1.81-2.55,4.73-2.55Zm0,1.14c-2.03,0-3.28,.52-3.27,1.41-.02,.89,1.23,1.41,3.27,1.39,2.03,.02,3.27-.5,3.28-1.39-.02-.89-1.25-1.41-3.28-1.41Zm11.23-7.94c0,1.97,1.27,3.72,3.39,4.41l-.81,1.16c-1.54-.55-2.67-1.63-3.28-3.03-.61,1.6-1.83,2.84-3.52,3.45l-.8-1.19c2.23-.77,3.53-2.62,3.55-4.73v-1.38h1.47v1.31Zm6.7-2.09v8.27h-1.48v-4.2h-2.95v-1.22h2.95v-2.84h1.48Zm-4.69,8.66c2.94,0,4.73,.97,4.73,2.67s-1.8,2.66-4.73,2.64c-2.94,.01-4.75-.95-4.73-2.64-.02-1.7,1.8-2.67,4.73-2.67Zm0,1.16c-2.05,0-3.27,.55-3.27,1.51s1.22,1.47,3.27,1.47,3.27-.53,3.27-1.47-1.22-1.51-3.27-1.51Zm14.41-8.34v1.19h-7.88v-1.19h3.28v-1.59h1.47v1.59h3.12Zm-3.88,1.83c1.89,0,3.22,1.05,3.23,2.61-.02,1.56-1.34,2.59-3.23,2.59s-3.22-1.03-3.22-2.59,1.31-2.61,3.22-2.61Zm0,1.12c-1.11,0-1.83,.58-1.83,1.48s.72,1.47,1.83,1.47,1.84-.56,1.86-1.47c-.02-.91-.77-1.48-1.86-1.48Zm7.66-4.42v9.02h-1.49v-1.8h-2.26v-1.2h2.26v-1.55h-2.25v-1.2h2.25v-3.27h1.49Zm-4.66,9.16c2.94,0,4.73,.88,4.73,2.41s-1.8,2.42-4.73,2.41c-2.95,.01-4.75-.89-4.75-2.41s1.8-2.41,4.75-2.41Zm0,1.14c-2.02,0-3.2,.44-3.2,1.27s1.19,1.28,3.2,1.26c1.97,.02,3.16-.45,3.16-1.26s-1.19-1.27-3.16-1.27Z"/>
  <path class="cls-6" d="M139.62,133.64c0-4.42,3.58-8,8-8h55c4.42,0,8,3.58,8,8v16c0,4.42-3.58,8-8,8h-55c-4.42,0-8-3.58-8-8v-16Z"/>
  <path class="cls-7" d="M151.28,135.21v1.24h6.49v-1.24h1.48v4.66h-9.44v-4.66h1.47Zm0,3.53h6.49v-1.2h-6.49v1.2Zm9.62,2.19v1.17h-12.76v-1.17h12.76Zm-1.61,2.3v3.25h-8.16v1.22h8.55v1.14h-10v-3.42h8.14v-1.08h-8.16v-1.11h9.62Zm15.15-.61v1.2h-12.81v-1.2h5.67v-1.33h-4.03v-3.56h8.08v-1.25h-8.11v-1.17h9.59v3.52h-8.09v1.31h8.38v1.16h-4.34v1.33h5.67Zm-1.53,2.19v4.06h-1.5v-2.88h-8.34v-1.19h9.84Zm6.43-5.53c0,2.2,1.02,4.45,2.95,5.48l-.83,1.09c-1.35-.72-2.3-2.06-2.8-3.66-.51,1.71-1.45,3.18-2.8,3.98l-.88-1.12c1.94-1.12,2.94-3.52,2.95-5.78v-.56h-2.53v-1.22h2.53v-2.02h1.39v2.02h2.49v1.22h-2.49v.56Zm7.83-4.3v14h-1.42v-14h1.42Zm-2.84,.3v13h-1.41v-6.61h-2.02v-1.24h2.02v-5.16h1.41Zm15.95-.28v10.17h-1.48v-10.17h1.48Zm.42,12.48v1.2h-9.58v-4.55h1.5v3.34h8.08Zm-8.01-11.55c2.11,0,3.72,1.44,3.72,3.47s-1.61,3.48-3.72,3.48-3.74-1.42-3.74-3.48,1.62-3.47,3.74-3.47Zm0,1.3c-1.31,0-2.28,.89-2.28,2.17s.97,2.19,2.28,2.19,2.26-.88,2.26-2.19-.98-2.17-2.26-2.17Z"/>
  <circle class="cls-1" cx="49.62" cy="206.64" r="3"/>
  <path class="cls-1" d="M44.62,214.64c0-2.21,1.79-4,4-4h2c2.21,0,4,1.79,4,4v1c0,.55-.45,1-1,1h-8c-.55,0-1-.45-1-1v-1Z"/>
  <path class="cls-7" d="M66.05,204.75v9.9h-1.24v-8.61h-.05l-2.41,1.6v-1.24l2.46-1.64h1.24Zm2.36,9.9v-.9s3.36-3.56,3.36-3.56c1.18-1.24,1.74-1.91,1.74-2.83,0-1.01-.86-1.68-1.97-1.68-1.18,0-1.93,.75-1.93,1.86h-1.16c-.01-1.75,1.34-2.93,3.13-2.93s3.08,1.2,3.08,2.75c0,1.11-.52,1.97-2.27,3.77l-2.27,2.34v.08h4.72v1.09h-6.43Zm20.34-10.25v1.07c0,1.16,0,2.41-.34,4.16h1.8v.89h-5.02v5.28h-1.08v-5.28h-4.98v-.89h8.18c.37-1.75,.37-3.03,.37-4.16v-.18h-7.15v-.89h8.22Zm13.28,5.28v.88h-11.07v-.88h5v-1.48h-3.6v-4.1h8.3v.89h-7.23v2.32h7.34v.89h-3.75v1.48h5Zm-1.35,2.07v4.12h-1.07v-3.24h-7.42v-.88h8.49Zm6.21-4.4c-.01,1.96,1.39,4.1,3.16,4.93l-.62,.85c-1.37-.66-2.52-2.11-3.06-3.76-.56,1.79-1.78,3.36-3.14,4.06l-.66-.85c1.75-.85,3.25-3.16,3.27-5.24v-1.59h-2.83v-.89h6.62v.89h-2.73v1.59Zm5.29-3.73v4.92h2.04v.92h-2.04v6.32h-1.07v-12.15h1.07Z"/>
  <rect class="cls-3" x="296.12" y="182.14" width="79" height="39" rx="9.5" ry="9.5"/>
  <rect class="cls-13" x="296.12" y="182.14" width="79" height="39" rx="9.5" ry="9.5"/>
  <path class="cls-8" d="M321.92,196.25v1.11c0,1.15,0,2.42-.33,4.17h1.71v1.23h-4.91v5.11h-1.53v-5.11h-4.83v-1.23h8.01c.34-1.68,.36-2.94,.36-4.05h-7.04v-1.23h8.56Zm13.2,5.29v1.22h-11.26v-1.22h4.87v-1.23h-3.49v-4.31h8.53v1.2h-7.01v1.87h7.12v1.23h-3.64v1.23h4.88Zm-1.35,2.19v4.17h-1.5v-2.95h-7.16v-1.22h8.67Zm11.59-8.23v4.92h1.9v1.26h-1.9v6.18h-1.5v-12.36h1.5Zm-2.46,1.9v1.22h-7.29v-1.22h2.93v-1.72h1.52v1.72h2.84Zm-3.6,2.02c1.78,0,3.1,1.2,3.1,2.91s-1.33,2.9-3.1,2.9-3.13-1.19-3.12-2.9c-.01-1.71,1.31-2.91,3.12-2.91Zm0,1.24c-.97,0-1.67,.66-1.67,1.67s.7,1.66,1.67,1.64c.94,.01,1.64-.63,1.65-1.64-.01-1.01-.71-1.67-1.65-1.67Zm18.52-5.17v12.36h-1.53v-12.36h1.53Zm-3.69,1.31c0,3.68-1.42,6.81-5.76,8.86l-.79-1.22c3.23-1.54,4.74-3.63,5-6.44h-4.38v-1.2h5.92Z"/>
  <rect class="cls-4" x="124.48" y="170.21" width="385" height="231" rx="15.5" ry="15.5"/>
  <rect class="cls-11" x="124.48" y="170.21" width="385" height="231" rx="15.5" ry="15.5"/>
  <path class="cls-2" d="M163.78,200.75v10.41h-2.36v-4.12h-1.43v4h-2.34v-10.02h2.34v3.96h1.43v-4.24h2.36Zm0,11.15v6.41h-12.13v-6.41h12.13Zm-9.65,1.93v2.48h7.19v-2.48h-7.19Zm2.71-11.23v1.97h-2.73c.02,1.77,1.04,3.47,3.26,4.26l-1.11,1.86c-1.59-.54-2.66-1.56-3.28-2.85-.63,1.41-1.72,2.53-3.34,3.12l-1.13-1.82c2.23-.87,3.23-2.69,3.24-4.57h-2.75v-1.97h2.75v-1.76h2.36v1.76h2.73Zm23.29-1.88v17.77h-2.52v-17.77h2.52Zm-4.43,1.64v1.99h-1.58v7.71c.78-.05,1.55-.13,2.3-.21l.12,1.86c-3.79,.62-7.89,.68-11.15,.7l-.23-2.03,2.05-.02v-8.01h-1.56v-1.99h10.06Zm-6.07,9.94l2.07-.08v-7.87h-2.07v7.95Zm27.23-11.56v12.99h-2.48v-6.31h-2.97c-.5,2.05-2.34,3.44-4.57,3.46-2.7-.02-4.75-1.91-4.73-4.55-.02-2.66,2.03-4.51,4.73-4.51,2.29,0,4.18,1.44,4.61,3.59h2.93v-4.67h2.48Zm.43,15.45v1.99h-12.23v-5.76h2.5v3.77h9.73Zm-10.45-12.21c-1.35,0-2.38,.86-2.36,2.34-.02,1.46,1.02,2.38,2.36,2.38s2.32-.92,2.32-2.38-1.02-2.34-2.32-2.34Zm21.08-.92c0,2.6,2.3,5.39,6.33,6.07l-1.09,2.07c-3.1-.62-5.4-2.35-6.54-4.65-1.18,2.28-3.49,4.02-6.56,4.65l-1.07-2.07c3.95-.7,6.27-3.5,6.29-6.07v-1.29h2.66v1.29Zm6.91,11.19v2.05h-16.27v-2.05h16.27Zm15.32-13.54v17.81h-2.48v-17.81h2.48Zm-5.51,1.48v6.86h-5.86v3.26c2.71,0,5.01-.17,7.62-.59l.22,2.01c-2.93,.51-5.57,.62-8.81,.62h-1.6v-7.29h5.9v-2.87h-5.92v-2.01h8.46Zm21.51,.16v2.13c0,2.44,0,4.86-.64,8.54l-2.52-.21c.66-3.42,.66-5.96,.68-8.32v-.14h-10.06v-1.99h12.54Zm1.99,11.76v2.05h-16.21v-2.05h16.21Z"/>
  <circle class="cls-9" cx="477.98" cy="209.71" r="2"/>
  <circle class="cls-9" cx="469.98" cy="209.71" r="2"/>
  <circle class="cls-9" cx="461.98" cy="209.71" r="2"/>
  <path class="cls-6" d="M147.98,249.71c0-4.42,3.58-8,8-8h41c4.42,0,8,3.58,8,8v16c0,4.42-3.58,8-8,8h-41c-4.42,0-8-3.58-8-8v-16Z"/>
  <path class="cls-7" d="M160.25,252.08c2.09,0,3.58,1.91,3.59,4.91-.02,3.02-1.5,4.92-3.59,4.92s-3.59-1.91-3.58-4.92c-.02-3,1.48-4.91,3.58-4.91Zm0,1.33c-1.28,0-2.16,1.38-2.16,3.58s.88,3.59,2.16,3.59,2.17-1.38,2.17-3.59-.88-3.58-2.17-3.58Zm7.16-2.38v5.48h2.25v1.25h-2.25v7.27h-1.48v-14h1.48Zm9.71,1.98c0,2.28,2.44,4.44,5.12,4.92l-.69,1.23c-2.23-.48-4.3-1.95-5.2-3.92-.92,1.95-2.98,3.42-5.22,3.92l-.66-1.23c2.66-.5,5.08-2.64,5.08-4.92v-1.06h1.56v1.06Zm5.7,8.94v1.23h-12.81v-1.23h12.81Zm11.7-10.92v2.81h2.03v1.25h-2.03v2.95h-1.48v-7.02h1.48Zm-8.88,.62v4.56c1.88-.02,3.87-.16,6.02-.59l.19,1.23c-2.36,.47-4.48,.61-6.55,.61h-1.14v-5.81h1.48Zm8.88,7.03v3.56h-7.55v1.41h8.03v1.2h-9.5v-3.75h7.53v-1.25h-7.56v-1.17h9.05Z"/>
  <path class="cls-6" d="M211.98,249.71c0-4.42,3.58-8,8-8h41c4.42,0,8,3.58,8,8v16c0,4.42-3.58,8-8,8h-41c-4.42,0-8-3.58-8-8v-16Z"/>
  <path class="cls-7" d="M232.12,251.04v14.03h-1.49v-14.03h1.49Zm-4.28,1.27v5.11h-5.03v3.06c2.27,0,4.25-.11,6.59-.5l.14,1.22c-2.48,.42-4.59,.52-7.06,.52h-1.19v-5.48h5.03v-2.72h-5.05v-1.2h6.56Zm17.84-1.27v14.03h-1.47v-7.7h-3.09v4.23h-6.56v-9.48h1.5v3.58h3.61v-3.58h1.45v4.03h3.09v-5.11h1.47Zm-9.62,9.34h3.61v-3.52h-3.61v3.52Zm23.02-8.98v1.12h-2.03v2.38h1.97v1.14h-10.27v-1.14h1.99v-2.38h-2.05v-1.12h10.39Zm1.2,5.66v1.19h-5.66v1.2h4.05v3.2h-8.16v1.12h8.55v1.12h-10v-3.3h8.14v-1.05h-8.16v-1.11h4.09v-1.2h-5.62v-1.19h12.77Zm-8.08-2.16h3.36v-2.38h-3.36v2.38Z"/>
  <path class="cls-6" d="M275.98,249.71c0-4.42,3.58-8,8-8h82c4.42,0,8,3.58,8,8v16c0,4.42-3.58,8-8,8h-82c-4.42,0-8-3.58-8-8v-16Z"/>
  <path class="cls-7" d="M289.92,252.54v4.98h-3.55v2.88c1.52,0,2.98-.06,4.7-.38l.12,1.22c-1.94,.34-3.53,.39-5.3,.41h-.97v-5.31h3.56v-2.59h-3.58v-1.2h5Zm6.59-1.5v14h-1.42v-14h1.42Zm-2.88,.31v12.97h-1.41v-7.12h-1.66v-1.2h1.66v-4.64h1.41Zm15.37-.31v2.92h2.03v1.23h-2.03v2.92h-1.49v-7.08h1.49Zm0,7.72v3.55h-7.56v1.38h8.05v1.19h-9.5v-3.67h7.55v-1.28h-7.58v-1.16h9.05Zm-7.11-7.23c2.12,0,3.67,1.28,3.67,3.12s-1.55,3.12-3.67,3.12-3.69-1.28-3.67-3.12c-.02-1.84,1.55-3.12,3.67-3.12Zm0,1.22c-1.3,0-2.23,.77-2.23,1.91s.94,1.94,2.23,1.94,2.24-.8,2.24-1.94-.95-1.91-2.24-1.91Zm16.7-.31v9.09h-6.55v-9.09h6.55Zm-5.09,1.17v6.72h3.62v-6.72h-3.62Zm8.92-2.56v5.48h2.25v1.25h-2.25v7.27h-1.48v-14h1.48Zm13.95,6.64v1.22h-9.75v-6.61h9.62v1.22h-8.16v4.17h8.28Zm1.47,4.28v1.23h-12.81v-1.23h12.81Zm12.32-10.92v14.03h-1.48v-14.03h1.48Zm-4.28,1.27v5.11h-5.03v3.06c2.27,0,4.25-.11,6.59-.5l.14,1.22c-2.48,.42-4.59,.52-7.06,.52h-1.19v-5.48h5.03v-2.72h-5.05v-1.2h6.56Zm17.51,5.38v1.22h-9.75v-6.61h9.62v1.22h-8.16v4.17h8.28Zm1.47,4.28v1.23h-12.81v-1.23h12.81Z"/>
  <path class="cls-6" d="M380.98,249.71c0-4.42,3.58-8,8-8h68c4.42,0,8,3.58,8,8v16c0,4.42-3.58,8-8,8h-68c-4.42,0-8-3.58-8-8v-16Z"/>
  <path class="cls-7" d="M400.4,251.04v5.42h2.25v1.25h-2.25v7.33h-1.48v-14h1.48Zm-8.91,1.17v3.59h3.7v-3.59h1.47v9.5h-6.64v-9.5h1.47Zm0,8.28h3.7v-3.52h-3.7v3.52Zm24.32,1.62v1.25h-12.81v-1.25h5.64v-2.45h-4.08v-4.45h8.22v-1.97h-8.25v-1.22h9.72v4.38h-8.22v2.05h8.55v1.22h-4.47v2.45h5.7Zm4.93-9.16c0,1.59,.94,3.19,2.7,3.91l-.8,1.11c-1.28-.52-2.13-1.51-2.59-2.7-.51,1.34-1.44,2.5-2.77,3.12l-.84-1.12c1.88-.84,2.86-2.69,2.86-4.38v-1.3h1.44v1.36Zm7.7-1.91v7.41h-1.41v-7.41h1.41Zm-2.78,.23v7.08h-1.42v-3.62h-2v-1.2h2v-2.25h1.42Zm2.78,7.75v3.42h-7.89v1.25h8.42v1.19h-9.89v-3.56h7.91v-1.12h-7.94v-1.17h9.39Zm14.38,3.08v1.25h-12.81v-1.25h5.64v-2.45h-4.08v-4.45h8.22v-1.97h-8.25v-1.22h9.72v4.38h-8.22v2.05h8.55v1.22h-4.47v2.45h5.7Zm13.77-5.58v1.22h-2.17v7.27h-1.48v-13.98h1.48v5.5h2.17Zm-11.08-4.14v7.88c1.95,0,3.99-.16,6.22-.62l.17,1.25c-2.39,.48-4.61,.61-6.7,.61h-1.16v-9.11h1.47Z"/>
  <circle class="cls-1" cx="159.98" cy="362.71" r="3"/>
  <path class="cls-1" d="M154.98,370.71c0-2.21,1.79-4,4-4h2c2.21,0,4,1.79,4,4v1c0,.55-.45,1-1,1h-8c-.55,0-1-.45-1-1v-1Z"/>
  <path class="cls-7" d="M176.33,370.85c-1.97,0-3.38-1.05-3.45-2.62h1.24c.07,.94,1.01,1.53,2.19,1.53,1.3,0,2.26-.71,2.26-1.74,0-1.08-.86-1.85-2.41-1.85h-.81v-1.08h.81c1.2,0,2.04-.67,2.04-1.69s-.72-1.65-1.85-1.65c-1.05,0-2.02,.59-2.08,1.56h-1.19c.07-1.57,1.52-2.62,3.28-2.62,1.89,0,3.04,1.23,3.02,2.65,.01,1.12-.64,1.96-1.68,2.24v.07c1.29,.21,2.08,1.12,2.06,2.38,.01,1.63-1.48,2.83-3.45,2.83Zm5.26-.14l4.54-8.74v-.07h-5.24v-1.09h6.51v1.15l-4.53,8.75h-1.29Zm19.54-10.25v1.07c0,1.16,0,2.41-.34,4.16h1.8v.89h-5.02v5.28h-1.08v-5.28h-4.98v-.89h8.18c.37-1.75,.37-3.03,.37-4.16v-.18h-7.15v-.89h8.22Zm13.28,5.28v.88h-11.07v-.88h5v-1.48h-3.6v-4.1h8.3v.89h-7.23v2.32h7.34v.89h-3.75v1.48h5Zm-1.35,2.07v4.12h-1.07v-3.24h-7.42v-.88h8.49Zm6.21-4.4c-.01,1.96,1.39,4.1,3.16,4.93l-.62,.85c-1.37-.66-2.52-2.11-3.06-3.76-.56,1.79-1.78,3.36-3.14,4.06l-.66-.85c1.75-.85,3.25-3.16,3.27-5.24v-1.59h-2.83v-.89h6.62v.89h-2.73v1.59Zm5.29-3.73v4.92h2.04v.92h-2.04v6.32h-1.07v-12.15h1.07Z"/>
  <rect class="cls-3" x="395.48" y="338.21" width="90" height="39" rx="9.5" ry="9.5"/>
  <rect class="cls-12" x="395.48" y="338.21" width="90" height="39" rx="9.5" ry="9.5"/>
  <path class="cls-10" d="M417.08,362.15l-4.04-4.02,1.06-1.08,2.98,2.98,6.77-6.75,1.06,1.06-7.83,7.81Z"/>
  <path class="cls-10" d="M441.28,352.32v1.11c0,1.15,0,2.42-.33,4.17h1.71v1.23h-4.91v5.11h-1.53v-5.11h-4.83v-1.23h8.01c.34-1.68,.36-2.94,.36-4.05h-7.04v-1.23h8.56Zm13.2,5.29v1.22h-11.26v-1.22h4.87v-1.23h-3.49v-4.31h8.53v1.2h-7.01v1.87h7.12v1.23h-3.64v1.23h4.88Zm-1.35,2.19v4.17h-1.5v-2.95h-7.16v-1.22h8.67Zm16.21-2.56v1.23h-4.89v1.03c2.21,.15,3.51,.92,3.53,2.2-.01,1.42-1.61,2.21-4.28,2.21s-4.31-.79-4.31-2.21c0-1.29,1.31-2.06,3.56-2.2v-1.03h-4.87v-1.23h11.26Zm-5.65,3.4c-1.8,.01-2.78,.37-2.76,1.05-.01,.68,.96,1.05,2.76,1.05s2.75-.37,2.76-1.05c-.01-.68-1-1.04-2.76-1.05Zm4.64-8.53v1.22h-3.56c.24,1.02,1.72,1.93,4.03,2.15l-.53,1.2c-2.24-.23-3.91-1.12-4.58-2.38-.67,1.25-2.31,2.15-4.55,2.38l-.52-1.2c2.27-.21,3.75-1.14,4.01-2.15h-3.53v-1.22h9.23Z"/>
</svg>