<?xml version="1.0" encoding="UTF-8"?>
<svg id="_레이어_1" data-name="레이어 1" xmlns="http://www.w3.org/2000/svg" width="532" height="432" xmlns:xlink="http://www.w3.org/1999/xlink" viewBox="0 0 532 432">
  <defs>
    <style>
      .cls-1 {
        fill: #e5e7eb;
      }

      .cls-2 {
        fill: #fff;
      }

      .cls-3, .cls-4 {
        fill: #f3f4f6;
      }

      .cls-4 {
        filter: url(#drop-shadow-1);
      }

      .cls-5, .cls-6 {
        fill: #d1d5db;
      }

      .cls-5, .cls-7 {
        fill-rule: evenodd;
      }

      .cls-8 {
        fill: #00bcd4;
      }

      .cls-9 {
        fill: #6b7280;
      }

      .cls-10 {
        fill: #374151;
      }

      .cls-7 {
        fill: #ff7648;
      }

      .cls-11 {
        mask: url(#mask-1);
      }

      .cls-12 {
        mask: url(#mask);
      }

      .cls-13 {
        fill: #989fac;
      }
    </style>
    <filter id="drop-shadow-1" filterUnits="userSpaceOnUse">
      <feOffset dx="1" dy="1"/>
      <feGaussianBlur result="blur" stdDeviation="5"/>
      <feFlood flood-color="#6a717e" flood-opacity=".5"/>
      <feComposite in2="blur" operator="in"/>
      <feComposite in="SourceGraphic"/>
    </filter>
    <mask id="mask" x="27.62" y="113" width="473.77" height="90" maskUnits="userSpaceOnUse"/>
    <mask id="mask-1" x="27.62" y="211" width="473.77" height="90" maskUnits="userSpaceOnUse"/>
  </defs>
  <path class="cls-4" d="M34.13,14.63H495.93c10.65,0,19.29,8.64,19.29,19.29V392.53c0,12.59-6.79,22.79-15.16,22.79H30c-8.37,0-15.16-10.2-15.16-22.79V33.92c0-10.65,8.64-19.29,19.29-19.29Z"/>
  <path class="cls-13" d="M60.64,38.67v1.07h-11.18v-1.07h11.18Zm-1.3-2.12v1.05h-8.49v-4.25h8.41v1.07h-7.12v2.13h7.2Zm-4.31,4.14c2.64,0,4.22,.81,4.22,2.23s-1.59,2.23-4.22,2.21c-2.65,.01-4.25-.79-4.25-2.21s1.6-2.23,4.25-2.23Zm0,1c-1.87,.01-2.94,.45-2.94,1.23s1.07,1.22,2.94,1.22,2.93-.44,2.93-1.22-1.08-1.22-2.93-1.23Zm17.44-2.09v1.05h-11.21v-1.05h4.96v-1.16h-3.53v-3.12h7.07v-1.09h-7.1v-1.03h8.39v3.08h-7.08v1.15h7.33v1.01h-3.8v1.16h4.96Zm-1.34,1.91v3.55h-1.31v-2.52h-7.3v-1.04h8.61Zm8.21-7.75c0,1.53,1.97,3.01,4.29,3.35l-.51,1.03c-1.94-.32-3.66-1.33-4.44-2.71-.78,1.41-2.51,2.41-4.46,2.73l-.49-1.03c2.32-.36,4.28-1.79,4.28-3.38v-.53h1.33v.53Zm4.95,5.32v1.05h-4.87v2.37h-1.29v-2.37h-5.06v-1.05h11.21Zm-1.24,4.77v1.05h-8.57v-3.55h1.3v2.5h7.27Z"/>
  <path class="cls-13" d="M97,40.73l3.83-3.73,1.17,1.14-5,4.86-5-4.86,1.17-1.14,3.83,3.73Z"/>
  <path class="cls-2" d="M27.6,73c0-4.42,2.29-8,5.11-8H411.85c2.82,0,5.11,3.58,5.11,8v24c0,4.42-2.29,8-5.11,8H32.71c-2.82,0-5.11-3.58-5.11-8v-24Z"/>
  <path class="cls-1" d="M32.71,65v.5H411.85v-1H32.71v.5Zm384.25,8h-.32v24h.64v-24h-.32Zm-5.11,32v-.5H32.71v1H411.85v-.5ZM27.6,97h.32v-24h-.64v24h.32Zm5.11,8v-.5c-2.64,0-4.79-3.36-4.79-7.5h-.64c0,4.69,2.43,8.5,5.43,8.5v-.5Zm384.25-8h-.32c0,4.14-2.14,7.5-4.79,7.5v1c3,0,5.43-3.81,5.43-8.5h-.32Zm-5.11-32v.5c2.64,0,4.79,3.36,4.79,7.5h.64c0-4.69-2.43-8.5-5.43-8.5v.5Zm-379.14,0v-.5c-3,0-5.43,3.81-5.43,8.5h.64c0-4.14,2.14-7.5,4.79-7.5v-.5Z"/>
  <path class="cls-13" d="M53.93,90v-.9s3.36-3.55,3.36-3.55c1.18-1.24,1.74-1.91,1.74-2.83,0-1.01-.86-1.68-1.97-1.68-1.18,0-1.93,.75-1.93,1.86h-1.16c-.01-1.75,1.34-2.93,3.13-2.93s3.08,1.2,3.08,2.75c0,1.11-.52,1.97-2.27,3.77l-2.27,2.34v.08h4.72v1.09h-6.43Zm11.18,.14c-2.2,0-3.46-1.85-3.46-5.09s1.29-5.09,3.46-5.09,3.46,1.87,3.46,5.09-1.27,5.09-3.46,5.09Zm0-1.09c1.42,0,2.26-1.44,2.26-3.99s-.83-4.02-2.26-4.02-2.27,1.46-2.27,4.02,.83,3.99,2.27,3.99Zm4.82,.96v-.9s3.36-3.55,3.36-3.55c1.18-1.24,1.74-1.91,1.74-2.83,0-1.01-.86-1.68-1.97-1.68-1.18,0-1.93,.75-1.93,1.86h-1.16c-.01-1.75,1.34-2.93,3.13-2.93s3.08,1.2,3.08,2.75c0,1.11-.52,1.97-2.27,3.77l-2.27,2.34v.08h4.72v1.09h-6.43Zm11.16,.14c-1.79,0-3.14-1.11-3.21-2.62h1.19c.1,.89,.96,1.54,2.02,1.54,1.29,0,2.21-.94,2.21-2.19s-.97-2.23-2.3-2.24c-.83-.01-1.48,.25-1.85,.89h-1.19l.7-5.41h5.36v1.09h-4.33l-.37,2.9h.1c.44-.34,1.11-.57,1.8-.57,1.89,0,3.28,1.39,3.28,3.32s-1.45,3.29-3.42,3.29Zm5.33-.05c-.48,0-.89-.4-.88-.89-.01-.48,.4-.88,.88-.88s.88,.4,.88,.88-.4,.89-.88,.89Zm8.87,.05c-2.2,0-3.46-1.85-3.46-5.09s1.29-5.09,3.46-5.09,3.46,1.87,3.46,5.09-1.27,5.09-3.46,5.09Zm0-1.09c1.42,0,2.26-1.44,2.26-3.99s-.83-4.02-2.26-4.02-2.27,1.46-2.27,4.02,.83,3.99,2.27,3.99Zm8.32-8.94v9.9h-1.24v-8.61h-.05l-2.41,1.6v-1.24l2.46-1.64h1.24Zm2.62,9.98c-.48,0-.89-.4-.88-.89-.01-.48,.4-.88,.88-.88s.88,.4,.88,.88-.4,.89-.88,.89Zm8.87,.05c-2.2,0-3.46-1.85-3.46-5.09s1.29-5.09,3.46-5.09,3.46,1.87,3.46,5.09-1.27,5.09-3.46,5.09Zm0-1.09c1.42,0,2.26-1.44,2.26-3.99s-.83-4.02-2.26-4.02-2.27,1.46-2.27,4.02,.83,3.99,2.27,3.99Zm8.32-8.94v9.9h-1.24v-8.61h-.06l-2.41,1.6v-1.24l2.46-1.64h1.24Zm16.27,6.07v.88h-5.07v4.06h-1.05v-4.06h-5v-.88h11.13Zm-8.64-6.71v1.68h6.12v-1.68h1.08v5.24h-8.27v-5.24h1.07Zm0,4.36h6.12v-1.8h-6.12v1.8Zm19.42-4.87v12.18h-1.07v-6.7h-2.57v-.89h2.57v-4.59h1.07Zm-3.84,1.12v.89h-4.59v2.53h4.06v.88h-4.06v2.94c2.24,0,3.66-.08,5.33-.37l.12,.89c-1.76,.29-3.25,.37-5.61,.37h-.93v-8.12h5.67Z"/>
  <path class="cls-8" d="M434.05,65h59.13c4.54,0,8.21,4.48,8.21,10v20c0,5.52-3.68,10-8.21,10h-59.13c-4.54,0-8.21-4.48-8.21-10v-20c0-5.52,3.68-10,8.21-10Z"/>
  <path class="cls-2" d="M444.22,79.88v1.23h-3.31v3.2c1.43,0,2.53-.08,3.75-.31l.14,1.23c-1.46,.27-2.71,.33-4.54,.33h-.85v-5.67h4.81Zm5.28-1.03v8.15h-1.45v-3.84h-1.28v2.73h-1.42v-6.82h1.42v2.84h1.28v-3.06h1.45Zm-3.47,7.96c0,1.44,1.59,2.82,4.09,3.17l-.64,1.18c-1.93-.32-3.45-1.22-4.2-2.46-.77,1.24-2.29,2.14-4.21,2.46l-.63-1.18c2.47-.36,4.06-1.74,4.07-3.17v-.41h1.52v.41Zm14.64-7.44v.82c0,.81,0,1.83-.25,3.12h1.63v1.2h-11.29v-1.2h8.14c.22-1.12,.25-2,.26-2.73h-7v-1.2h8.52Zm-.01,6.12v3.35h-7.07v1.05h7.38v1.19h-8.9v-3.4h7.07v-1h-7.08v-1.19h8.6Zm9.39-4.5c0,1.52,.98,3.02,2.93,3.66l-.77,1.18c-1.38-.46-2.37-1.39-2.9-2.54-.55,1.26-1.58,2.27-3.02,2.76l-.81-1.18c2-.66,3.03-2.26,3.03-3.88v-.15h-2.61v-1.22h6.71v1.22h-2.57v.15Zm5.32-2.15v3.09h1.72v1.27h-1.72v3.09h-1.52v-7.45h1.52Zm0,8.03v4.33h-1.52v-3.12h-6.71v-1.22h8.23Zm6.6-6.25c-.01,1.68,.97,3.21,2.91,3.83l-.82,1.19c-1.35-.47-2.29-1.37-2.82-2.54-.55,1.35-1.58,2.41-3.08,2.93l-.81-1.23c2.05-.67,3.08-2.32,3.08-4.1v-1.18h1.53v1.11Zm5.82-1.78v7.27h-1.52v-3.64h-2.46v-1.24h2.46v-2.39h1.52Zm-4.18,7.6c2.62,0,4.22,.88,4.22,2.38s-1.6,2.37-4.22,2.37-4.21-.86-4.2-2.37c-.01-1.5,1.59-2.38,4.2-2.38Zm0,1.18c-1.72,0-2.69,.42-2.69,1.2s.97,1.18,2.69,1.18,2.71-.42,2.71-1.18-.98-1.2-2.71-1.2Z"/>
  <path class="cls-3" d="M27.62,113H501.39v90H27.62V113Z"/>
  <g class="cls-12">
    <path class="cls-6" d="M501.39,203v-1H27.62v2H501.39v-1Z"/>
  </g>
  <path class="cls-9" d="M51.93,133.68c0,3.14-2.23,5.34-5.85,6.3l-.52-1.02c2.95-.77,4.74-2.3,4.98-4.24h-4.29v-1.04h5.69Zm3.68-.75v6.89h-1.3v-6.89h1.3Zm0,7.44v4.63h-8.03v-4.63h8.03Zm-6.74,1.04v2.56h5.47v-2.56h-5.47Zm18.29-7.35v1.15c-.01,1.49,0,3.19-.52,5.73l-1.27-.14c.23-1.05,.36-1.97,.42-2.8l-7.37,.44-.19-1.12,7.63-.3c.03-.66,.03-1.25,.03-1.81v-.08h-7.29v-1.07h8.56Zm1.29,8.45v1.08h-11.17v-1.08h4.25v-3.1h1.29v3.1h5.63Zm10.58-3.77v1.07h-8.53v-5.78h8.42v1.07h-7.14v3.65h7.25Zm1.29,3.75v1.08h-11.21v-1.08h11.21Z"/>
  <path class="cls-9" d="M97.39,144.14c-2.05,0-3.51-1.11-3.57-2.72h1.53c.05,.88,.92,1.42,2.02,1.42,1.19,0,2.06-.66,2.06-1.61s-.82-1.68-2.23-1.68h-.85v-1.23h.85c1.12,0,1.91-.63,1.91-1.57s-.67-1.52-1.72-1.52c-1,0-1.87,.55-1.91,1.45h-1.45c.04-1.61,1.53-2.71,3.38-2.71,1.94,0,3.17,1.23,3.16,2.69,.01,1.12-.68,1.94-1.75,2.2v.07c1.35,.19,2.13,1.09,2.13,2.35,0,1.65-1.52,2.86-3.57,2.86Zm15.72-4.81v1.04h-4.87v2.26h-1.29v-2.26h-5.06v-1.04h11.21Zm-1.24,4.53v1.05h-8.57v-3.35h1.29v2.3h7.29Zm-7.21-10.56v1.49h5.67v-1.49h1.3v4.95h-8.26v-4.95h1.29Zm0,3.91h5.67v-1.45h-5.67v1.45Zm22.42-4.28v8.97h-1.3v-4.61h-2.34v-1.05h2.34v-3.31h1.3Zm.33,10.92v1.05h-8.28v-3.81h1.3v2.76h6.99Zm-6.15-8.45c0,1.53,1.11,3.06,2.95,3.68l-.67,1.04c-1.37-.49-2.39-1.47-2.93-2.68-.53,1.35-1.61,2.43-3.06,2.95l-.67-1.05c1.89-.64,3.05-2.26,3.05-3.94v-.48h-2.65v-1.07h6.6v1.07h-2.62v.48Z"/>
  <path class="cls-8" d="M147.94,132.91v12.25h-1.25v-6.28h-1.57v5.65h-1.22v-11.38h1.22v4.66h1.57v-4.91h1.25Zm-8.61,1.45v6.53c1.13,0,2.37-.1,3.76-.37l.14,1.14c-1.68,.3-3.09,.38-4.4,.38h-.79v-7.68h1.3Zm18.33-.41v1.05h-3.45v3.43c1.53-.01,2.67-.08,3.96-.34l.12,1.07c-1.49,.27-2.75,.34-4.57,.34h-.81v-5.55h4.73Zm5.2-1.04v8.08h-1.23v-3.9h-1.5v2.83h-1.22v-6.79h1.22v2.9h1.5v-3.12h1.23Zm-3.5,7.96c0,1.52,1.82,2.88,4.13,3.23l-.55,1.01c-1.87-.33-3.48-1.26-4.23-2.57-.76,1.31-2.37,2.24-4.24,2.57l-.55-1.01c2.31-.34,4.13-1.71,4.13-3.23v-.45h1.3v.45Zm14.66-7.44v.81c0,.81,0,1.84-.26,3.17h1.68v1.04h-11.21v-1.04h8.23c.25-1.24,.27-2.18,.27-2.94h-7.1v-1.04h8.38Zm.01,6.11v3.21h-7.18v1.24h7.49v1.04h-8.79v-3.28h7.19v-1.18h-7.21v-1.04h8.49Z"/>
  <path class="cls-5" d="M433.95,135.52c-1.81,1.8-1.96,4.68-.26,6.58,.71,.79,1.45,1.6,2.11,2.25,1.57,1.56,3.97,3.59,5.09,4.52,.17,.15,.39,.21,.61,.2,.21,.01,.43-.05,.61-.2,1.11-.93,3.52-2.96,5.09-4.52,.66-.66,1.41-1.46,2.11-2.25,1.7-1.9,1.55-4.78-.26-6.58-1.95-1.93-5.1-1.93-7.04,0l-.5,.5-.51-.5c-1.95-1.93-5.1-1.93-7.04,0Z"/>
  <path class="cls-9" d="M457.93,136.1v9.9h-1.24v-8.61h-.05l-2.41,1.6v-1.24l2.46-1.64h1.24Zm2.36,9.9v-.9s3.36-3.56,3.36-3.56c1.18-1.24,1.74-1.91,1.74-2.83,0-1.01-.86-1.68-1.97-1.68-1.18,0-1.93,.75-1.93,1.86h-1.16c-.01-1.75,1.34-2.93,3.13-2.93s3.08,1.2,3.08,2.75c0,1.11-.52,1.97-2.27,3.77l-2.27,2.34v.08h4.72v1.09h-6.43Z"/>
  <circle class="cls-13" cx="492.5" cy="139" r="1.5"/>
  <circle class="cls-13" cx="487" cy="139" r="1.5"/>
  <circle class="cls-13" cx="481.5" cy="139" r="1.5"/>
  <path class="cls-10" d="M57.19,168.33v8.33h-1.48v-3.55h-2.61v-1.22h2.61v-3.56h1.48Zm-4.69,8.72c2.94,0,4.73,.97,4.73,2.64s-1.8,2.62-4.73,2.64c-2.94-.02-4.75-.97-4.73-2.64-.02-1.67,1.8-2.64,4.73-2.64Zm0,1.16c-2.05,0-3.27,.53-3.27,1.49s1.22,1.48,3.27,1.47c2.05,.02,3.27-.53,3.27-1.47s-1.22-1.49-3.27-1.49Zm-1.97-7.41c0,1.78,1.27,3.5,3.38,4.22l-.77,1.17c-1.57-.55-2.73-1.67-3.33-3.05-.62,1.57-1.84,2.83-3.52,3.44l-.78-1.19c2.17-.75,3.5-2.64,3.5-4.58v-.31h-3.03v-1.2h7.55v1.2h-3v.3Zm19.49-2.47v2.92h2.03v1.23h-2.03v2.92h-1.48v-7.08h1.48Zm-3.91,.75v5.67h-6.55v-5.67h6.55Zm-5.09,1.19v3.3h3.64v-3.3h-3.64Zm9,5.78v3.55h-7.56v1.38h8.05v1.19h-9.5v-3.67h7.55v-1.28h-7.58v-1.16h9.05Zm18.89,.19v1.22h-3.25v4.88h-1.5v-4.88h-3.34v4.88h-1.53v-4.88h-3.19v-1.22h12.81Zm-6.44-7.38c2.95,0,4.98,1.2,4.98,3.09s-2.03,3.05-4.98,3.03c-2.97,.02-4.98-1.17-4.98-3.03s2.02-3.09,4.98-3.09Zm0,1.19c-2.08,.01-3.47,.73-3.45,1.91-.02,1.14,1.38,1.86,3.45,1.86s3.47-.72,3.47-1.86-1.39-1.89-3.47-1.91Zm18.76,7.3v4.98h-1.48v-3.78h-8v-1.2h9.48Zm0-9.02v8.3h-1.48v-8.3h1.48Zm-7.59,.81c2.14,0,3.72,1.38,3.72,3.34s-1.58,3.34-3.72,3.34-3.73-1.38-3.73-3.34,1.59-3.34,3.73-3.34Zm0,1.26c-1.33,0-2.28,.83-2.28,2.08s.95,2.09,2.28,2.08c1.31,.02,2.27-.81,2.27-2.08s-.95-2.08-2.27-2.08Zm20.49-2.06v4.5h2.03v1.23h-2.03v4.73h-1.48v-10.47h1.48Zm-2.64,1.62v1.2h-8.34v-1.2h3.44v-1.64h1.48v1.64h3.42Zm-4.17,1.88c2.02,0,3.39,1.05,3.39,2.64s-1.38,2.62-3.39,2.62-3.41-1.03-3.41-2.62,1.38-2.64,3.41-2.64Zm0,1.14c-1.19,0-1.98,.58-1.97,1.5-.01,.91,.78,1.47,1.97,1.47s1.98-.56,2-1.47c-.02-.92-.81-1.5-2-1.5Zm7.41,7.84v1.2h-9.47v-4.05h1.49v2.84h7.98Zm17.17-12.5v8.33h-1.49v-3.55h-2.61v-1.22h2.61v-3.56h1.49Zm-4.69,8.72c2.94,0,4.74,.97,4.74,2.64s-1.8,2.62-4.74,2.64c-2.94-.02-4.75-.97-4.73-2.64-.02-1.67,1.8-2.64,4.73-2.64Zm0,1.16c-2.05,0-3.26,.53-3.26,1.49s1.22,1.48,3.26,1.47c2.05,.02,3.27-.53,3.27-1.47s-1.22-1.49-3.27-1.49Zm-1.97-7.41c0,1.78,1.27,3.5,3.38,4.22l-.77,1.17c-1.57-.55-2.73-1.67-3.33-3.05-.62,1.57-1.84,2.83-3.52,3.44l-.78-1.19c2.17-.75,3.5-2.64,3.5-4.58v-.31h-3.03v-1.2h7.55v1.2h-3v.3Zm21.3,8.56v1.24h-12.81v-1.24h5.64v-2.88h-4.17v-7.2h1.48v2.41h6.88v-2.41h1.47v7.2h-4.19v2.88h5.7Zm-9.86-4.08h6.88v-2.39h-6.88v2.39Zm12.68-5.5v7.78c1.44-.02,2.8-.12,4.34-.44l.2,1.27c-1.83,.38-3.38,.45-5.11,.45h-.92v-9.06h1.48Zm9.91-1.45v14h-1.41v-14h1.41Zm-3,.31v13h-1.41v-7.49h-3.06v-1.22h3.06v-4.3h1.41Zm17.29,10.7v1.23h-12.81v-1.23h3.06v-3.66c-1.15-.63-1.84-1.64-1.84-2.89,0-2.2,2.16-3.66,5.16-3.66s5.17,1.45,5.17,3.66c0,1.23-.67,2.23-1.8,2.86v3.69h3.06Zm-6.44-9.02c-2.2,0-3.72,.95-3.72,2.47s1.52,2.48,3.72,2.48,3.74-.98,3.74-2.48-1.55-2.47-3.74-2.47Zm-1.84,9.02h3.72v-3.12c-.57,.15-1.2,.22-1.88,.22s-1.28-.07-1.84-.2v3.11Zm9.96-4.3c.51-.58,1.16-.88,1.86-.88,1.22,0,2.3,.89,3.48,.89,.72,0,1.34-.31,1.83-.94v1.5c-.53,.58-1.16,.88-1.86,.88-1.22,0-2.31-.89-3.5-.89-.7,0-1.31,.31-1.81,.94v-1.5Zm23.62-6.16v.95c0,.97,0,2.26-.33,3.94h1.97v1.2h-5.74v2.09h-1.45v-2.09h-5.62v-1.2h9.38c.31-1.59,.34-2.75,.34-3.69h-8.11v-1.2h9.56Zm-4.06,9.2c0,1.51,1.97,2.73,4.67,3.05l-.5,1.12c-2.26-.27-4.09-1.15-4.94-2.49-.84,1.31-2.67,2.21-4.89,2.49l-.51-1.12c2.66-.31,4.66-1.59,4.67-3.05v-.47h1.5v.47Zm17.57-9.2v.95c0,.97,0,2.26-.33,3.94h1.97v1.2h-5.73v2.09h-1.45v-2.09h-5.62v-1.2h9.38c.31-1.59,.34-2.75,.34-3.69h-8.11v-1.2h9.56Zm-4.06,9.2c0,1.51,1.97,2.73,4.67,3.05l-.5,1.12c-2.26-.27-4.09-1.15-4.94-2.49-.84,1.31-2.67,2.21-4.89,2.49l-.52-1.12c2.66-.31,4.66-1.59,4.67-3.05v-.47h1.5v.47Zm13.41-7.12c-.02,1.02,.23,2.52,1.19,3.58,.94-1.03,1.17-2.49,1.19-3.58v-.41h-.91v-1.22h3.94v1.22h-1.62v.41c0,1.45,.59,3.2,2.2,4.05l-.8,1.08c-1.07-.56-1.73-1.54-2.09-2.62-.31,1.1-.89,2.13-1.92,2.75-1.01-.62-1.59-1.66-1.89-2.74-.38,1.07-1.04,2.04-2.09,2.61l-.8-1.08c1.59-.84,2.22-2.66,2.22-4.05v-.41h-1.7v-1.22h4v1.22h-.91v.41Zm7.91-2.64v3.56h1.67v1.25h-1.67v3.76h-1.47v-8.58h1.47Zm-4.64,8.72c2.94,0,4.77,.97,4.77,2.62s-1.83,2.64-4.77,2.62c-2.94,.01-4.75-.94-4.75-2.62s1.81-2.62,4.75-2.62Zm0,1.2c-2.06-.02-3.25,.52-3.25,1.42s1.19,1.45,3.25,1.45,3.25-.52,3.27-1.45c-.02-.91-1.22-1.44-3.27-1.42Z"/>
  <path class="cls-3" d="M27.62,211H501.39v90H27.62v-90Z"/>
  <g class="cls-11">
    <path class="cls-6" d="M501.39,301v-1H27.62v2H501.39v-1Z"/>
  </g>
  <path class="cls-9" d="M55.98,230.91v12.25h-1.23v-12.25h1.23Zm-2.5,.32v11.33h-1.23v-4.17h-2.09v-1.07h2.09v-2h-1.89c-.59,2.06-1.9,3.84-4.21,5.22l-.77-.93c2.6-1.54,3.85-3.6,4.07-6.12h-3.47v-1.07h4.76c0,.63-.05,1.24-.15,1.83h1.65v-3.03h1.23Zm13.42-.3v3.68h1.79v1.09h-1.79v4.24h-1.3v-9.01h1.3Zm.55,10.92v1.05h-8.24v-3.66h1.31v2.61h6.93Zm-4.1-10.15v3.61h-4.27v1.71c2.13,0,3.63-.1,5.41-.4l.14,1.07c-1.9,.33-3.51,.4-5.87,.4h-.98v-3.77h4.29v-1.54h-4.31v-1.07h5.58Zm16.29,.56v1.07h-9.97v-1.07h4.36v-1.41h1.29v1.41h4.32Zm.67,6.58v1.07h-4.99v3.27h-1.29v-3.27h-4.94v-1.07h11.21Zm-5.63-4.88c2.54,0,4.07,.73,4.07,2.06s-1.53,2.04-4.07,2.05c-2.56-.01-4.09-.74-4.07-2.05-.01-1.34,1.52-2.06,4.07-2.06Zm0,.97c-1.76,0-2.73,.38-2.73,1.09s.97,1.07,2.73,1.07,2.72-.38,2.73-1.07c-.01-.71-.98-1.09-2.73-1.09Zm15.78-4.02v4.79h1.97v1.09h-1.97v6.4h-1.29v-12.28h1.29Zm-3.46,1.11v4.5h-4.29v2.65c2.11,0,3.66-.08,5.46-.41l.12,1.05c-1.91,.36-3.57,.44-5.87,.45h-1v-4.8h4.29v-2.39h-4.32v-1.05h5.61Zm15.88-1.11v12.28h-1.3v-12.28h1.3Zm-6.55,.92c1.82,0,3.16,1.67,3.16,4.29s-1.34,4.31-3.16,4.31-3.17-1.67-3.17-4.31,1.33-4.29,3.17-4.29Zm0,1.16c-1.13,0-1.91,1.2-1.91,3.13s.78,3.15,1.91,3.15,1.9-1.2,1.9-3.15-.78-3.13-1.9-3.13Z"/>
  <path class="cls-9" d="M121.39,242.14c-2.05,0-3.51-1.11-3.57-2.72h1.53c.05,.88,.92,1.42,2.02,1.42,1.19,0,2.06-.66,2.06-1.61s-.82-1.68-2.23-1.68h-.85v-1.23h.85c1.12,0,1.91-.63,1.91-1.57s-.67-1.52-1.72-1.52c-1,0-1.87,.55-1.91,1.45h-1.45c.04-1.61,1.53-2.71,3.38-2.71,1.94,0,3.17,1.23,3.16,2.69,.01,1.12-.68,1.94-1.75,2.2v.07c1.35,.19,2.13,1.09,2.13,2.35,0,1.65-1.52,2.86-3.57,2.86Zm15.72-4.81v1.04h-4.87v2.26h-1.29v-2.26h-5.06v-1.04h11.21Zm-1.24,4.53v1.05h-8.57v-3.35h1.29v2.3h7.29Zm-7.2-10.56v1.49h5.67v-1.49h1.3v4.95h-8.26v-4.95h1.29Zm0,3.91h5.67v-1.45h-5.67v1.45Zm22.42-4.28v8.97h-1.3v-4.61h-2.34v-1.05h2.34v-3.31h1.3Zm.33,10.92v1.05h-8.29v-3.81h1.3v2.76h6.99Zm-6.15-8.45c0,1.53,1.11,3.06,2.95,3.68l-.67,1.04c-1.37-.49-2.39-1.47-2.93-2.68-.53,1.35-1.61,2.43-3.06,2.95l-.67-1.05c1.89-.64,3.05-2.26,3.05-3.94v-.48h-2.65v-1.07h6.6v1.07h-2.62v.48Z"/>
  <path class="cls-5" d="M461.95,233.52c-1.81,1.8-1.96,4.68-.26,6.58,.71,.79,1.45,1.6,2.11,2.25,1.57,1.56,3.97,3.59,5.09,4.52,.17,.15,.39,.21,.61,.2,.21,.01,.43-.05,.61-.2,1.11-.93,3.52-2.96,5.09-4.52,.66-.66,1.41-1.46,2.11-2.25,1.7-1.9,1.55-4.78-.26-6.58-1.95-1.93-5.1-1.93-7.04,0l-.5,.5-.51-.5c-1.95-1.93-5.1-1.93-7.04,0Z"/>
  <path class="cls-9" d="M485.93,234.1v9.9h-1.24v-8.61h-.05l-2.41,1.6v-1.24l2.46-1.64h1.24Zm2.36,9.9v-.9s3.36-3.56,3.36-3.56c1.18-1.24,1.74-1.91,1.74-2.83,0-1.01-.86-1.68-1.97-1.68-1.18,0-1.93,.75-1.93,1.86h-1.16c-.01-1.75,1.34-2.93,3.13-2.93s3.08,1.2,3.08,2.75c0,1.11-.52,1.97-2.27,3.77l-2.27,2.34v.08h4.72v1.09h-6.43Z"/>
  <path class="cls-10" d="M49.72,267.22c2.16,0,3.77,1.36,3.77,3.33,0,1.73-1.25,2.99-3.02,3.27v2.22c1.24-.05,2.48-.15,3.64-.3l.11,1.11c-2.95,.52-6.22,.53-8.64,.52l-.23-1.22c1.09,0,2.34-.02,3.64-.05v-2.28c-1.81-.26-3.05-1.52-3.03-3.27-.02-1.97,1.56-3.33,3.77-3.33Zm0,1.25c-1.34,.02-2.33,.83-2.33,2.08s.98,2.08,2.33,2.06c1.33,.02,2.3-.81,2.31-2.06-.02-1.25-.98-2.06-2.31-2.08Zm6.72-2.14v5.69h2.16v1.25h-2.16v7.06h-1.48v-14h1.48Zm4.18,12.78c-.61,0-1.12-.5-1.11-1.11-.02-.61,.5-1.11,1.11-1.11s1.11,.5,1.11,1.11-.52,1.11-1.11,1.11Zm4.22,0c-.61,0-1.12-.5-1.11-1.11-.02-.61,.5-1.11,1.11-1.11s1.11,.5,1.11,1.11-.52,1.11-1.11,1.11Zm4.22,0c-.61,0-1.12-.5-1.11-1.11-.02-.61,.5-1.11,1.11-1.11s1.11,.5,1.11,1.11-.52,1.11-1.11,1.11Zm9.45-11.73c2.09,0,3.58,1.91,3.59,4.91-.02,3.02-1.5,4.92-3.59,4.92s-3.59-1.91-3.58-4.92c-.02-3,1.48-4.91,3.58-4.91Zm0,1.33c-1.28,0-2.16,1.38-2.16,3.58s.88,3.59,2.16,3.59,2.17-1.38,2.17-3.59-.88-3.58-2.17-3.58Zm7.16-2.38v5.48h2.25v1.25h-2.25v7.27h-1.48v-14h1.48Zm9.71,1.98c0,2.28,2.44,4.44,5.12,4.92l-.69,1.23c-2.23-.48-4.3-1.95-5.2-3.92-.92,1.95-2.98,3.42-5.22,3.92l-.66-1.23c2.66-.5,5.08-2.64,5.08-4.92v-1.06h1.56v1.06Zm5.7,8.94v1.23h-12.81v-1.23h12.81Zm11.7-10.92v2.81h2.03v1.25h-2.03v2.95h-1.48v-7.02h1.48Zm-8.88,.62v4.56c1.88-.02,3.87-.16,6.02-.59l.19,1.23c-2.36,.47-4.48,.61-6.55,.61h-1.14v-5.81h1.48Zm8.88,7.03v3.56h-7.55v1.41h8.03v1.2h-9.5v-3.75h7.53v-1.25h-7.56v-1.17h9.05Zm17.77-7.64v8.28h-1.48v-1.7h-3.53v-1.22h3.53v-1.7h-3.39c-.9,2.25-3,3.84-6.03,4.7l-.59-1.16c3.31-.95,5.25-2.73,5.52-4.98h-4.8v-1.22h6.41c0,.52-.05,1.02-.14,1.48h3.03v-2.48h1.48Zm-4.61,8.44c2.83,0,4.69,1.03,4.7,2.73-.02,1.7-1.87,2.75-4.7,2.75s-4.72-1.05-4.72-2.75,1.84-2.73,4.72-2.73Zm0,1.17c-2,0-3.25,.56-3.25,1.56s1.25,1.56,3.25,1.56,3.2-.58,3.22-1.56c-.02-1-1.25-1.56-3.22-1.56Zm18.09-9.62v14h-1.5v-14h1.5Zm-4.17,1.5c0,4.09-1.75,7.66-6.55,9.95l-.78-1.2c3.73-1.77,5.54-4.3,5.83-7.56h-5.16v-1.19h6.66Zm14.81,1.42c0,1.81,1.34,3.52,3.5,4.2l-.76,1.16c-1.61-.53-2.83-1.63-3.45-3.03-.63,1.52-1.88,2.73-3.55,3.31l-.77-1.17c2.17-.73,3.52-2.55,3.53-4.47v-.61h-3.14v-1.2h7.72v1.2h-3.08v.61Zm6.42-2.91v10.22h-1.48v-10.22h1.48Zm.42,12.48v1.2h-9.58v-4.44h1.5v3.23h8.08Zm12.76-12.5v5.47h1.84v1.25h-1.84v7.28h-1.48v-14h1.48Zm-7.97,3.97c0,1.57,.19,3.72,1.28,5.23,1.04-1.48,1.25-3.61,1.26-5.23v-1.41h-1v-1.2h3.91v1.2h-1.5v1.41c0,2.16,.41,4.72,2.16,6l-.95,1.08c-1-.77-1.59-2-1.92-3.39-.32,1.42-.91,2.72-1.97,3.52-1.04-.79-1.63-2.09-1.95-3.5-.35,1.38-.94,2.61-1.92,3.38l-.95-1.08c1.73-1.3,2.16-3.91,2.16-6v-1.41h-1.67v-1.2h4.06v1.2h-.98v1.41Zm17.66-3.16c1.16,0,2.16,.43,2.81,1.16h3.5v-1.97h1.48v8.27h-1.48v-1.89h-3.52c-.65,.72-1.64,1.15-2.8,1.14-2.11,.02-3.67-1.39-3.67-3.34s1.56-3.38,3.67-3.36Zm0,1.28c-1.31-.02-2.25,.83-2.25,2.08s.94,2.09,2.25,2.08c1.28,.02,2.22-.86,2.22-2.08s-.94-2.09-2.22-2.08Zm3.11,6.48c2.91,0,4.73,.98,4.73,2.7s-1.83,2.7-4.73,2.69c-2.92,.02-4.75-.98-4.74-2.69-.01-1.72,1.81-2.7,4.74-2.7Zm0,1.14c-2.05,0-3.3,.56-3.28,1.56-.01,.97,1.24,1.52,3.28,1.52s3.28-.55,3.28-1.52-1.22-1.56-3.28-1.56Zm.38-6.56c.1,.31,.16,.66,.16,1.02s-.05,.68-.14,.98h2.81v-2h-2.83Zm17.12-3.16v5.86h2.11v1.25h-2.11v6.89h-1.48v-14h1.48Zm-11.14,10.19c1.1,0,2.38,0,3.72-.05v-1.42c-1.58-.22-2.61-1.17-2.59-2.53-.02-1.58,1.34-2.62,3.34-2.62s3.36,1.05,3.38,2.62c-.01,1.36-1.06,2.32-2.64,2.55v1.34c1.24-.05,2.49-.15,3.66-.31l.09,1.09c-3.03,.55-6.31,.56-8.72,.56l-.23-1.23Zm8.66-8.53v1.19h-8.39v-1.19h3.45v-1.62h1.49v1.62h3.45Zm-4.19,3.06c-1.17,0-1.95,.58-1.95,1.47s.78,1.44,1.95,1.44,1.95-.55,1.95-1.44-.78-1.47-1.95-1.47Zm23.8-4.72v3.16h2.03v1.2h-2.03v3.08h-1.48v-7.44h1.48Zm-3.78,.97c0,3.58-2.42,5.84-6.58,6.73l-.62-1.2c3.53-.71,5.36-2.36,5.56-4.34h-4.94v-1.19h6.58Zm3.84,7.06v1.12h-7.56v1.2h7.41v1.08h-7.41v1.27h7.88v1.12h-9.36v-5.8h9.05Zm6.38-7.23c2.14,0,3.72,1.34,3.74,3.33-.02,1.95-1.59,3.31-3.74,3.31s-3.73-1.36-3.72-3.31c-.02-1.98,1.58-3.33,3.72-3.33Zm0,1.25c-1.31,0-2.28,.84-2.26,2.08-.02,1.25,.95,2.06,2.26,2.08,1.31-.02,2.28-.83,2.28-2.08s-.97-2.08-2.28-2.08Zm7.06-2.05v3.25h2.03v1.22h-2.03v3.45h-1.48v-7.92h1.48Zm-6.3,9.23c0,1.21,.59,2.48,1.88,3.25,1.27-.83,1.89-2.19,1.89-3.25v-.7h1.45v.7c0,1.47,.95,2.88,2.78,3.48l-.75,1.11c-1.36-.5-2.3-1.44-2.77-2.59-.45,1.13-1.3,2.19-2.59,2.72-1.34-.52-2.18-1.51-2.61-2.66-.51,1.1-1.43,2.04-2.73,2.53l-.73-1.11c1.78-.64,2.76-2.12,2.76-3.48v-.7h1.42v.7Zm19.71-9.23v5.42h2.25v1.22h-2.25v7.39h-1.48v-14.03h1.48Zm-3.76,1.34v1.2h-5.06v6.77c2.35,0,4.12-.11,6.11-.47l.19,1.25c-2.19,.39-4.05,.47-6.66,.45h-1.12v-9.2h6.55Zm7.96,11.44c-.61,0-1.12-.5-1.11-1.11-.02-.61,.5-1.11,1.11-1.11s1.11,.5,1.11,1.11-.51,1.11-1.11,1.11Zm17.75-11.23v1.22h-11.39v-1.22h4.98v-1.61h1.47v1.61h4.94Zm.77,7.52v1.22h-5.7v3.73h-1.47v-3.73h-5.64v-1.22h12.81Zm-6.44-5.58c2.91,0,4.66,.83,4.66,2.36s-1.75,2.33-4.66,2.34c-2.92-.02-4.67-.84-4.66-2.34-.02-1.53,1.73-2.36,4.66-2.36Zm0,1.11c-2.02,0-3.12,.44-3.12,1.25s1.11,1.22,3.12,1.22,3.11-.44,3.12-1.22c-.02-.81-1.12-1.25-3.12-1.25Zm18.13-4.58v4.12h2.03v1.25h-2.03v4.91h-1.48v-10.28h1.48Zm.59,12.48v1.2h-9.47v-4.42h1.48v3.22h7.99Zm-9.59-11.48v2.23h3.67v-2.23h1.47v6.97h-6.59v-6.97h1.45Zm0,5.78h3.67v-2.38h-3.67v2.38Zm22.19-5.77v6.3h-6.55v-6.3h6.55Zm-5.09,1.17v3.94h3.64v-3.94h-3.64Zm9-2.2v3.55h2.03v1.23h-2.03v3.52h-1.48v-8.3h1.48Zm0,9v5.02h-1.48v-3.83h-7.77v-1.19h9.25Zm10.46-7.73v1.2h-1.33v4.39c.66-.05,1.31-.12,1.94-.19l.09,1.11c-2.83,.45-6.08,.52-8.48,.52l-.17-1.22,1.72-.02v-4.59h-1.33v-1.2h7.56Zm3.05-1.25v4.14h2.03v1.25h-2.03v4.91h-1.48v-10.3h1.48Zm.59,12.48v1.2h-9.47v-4.38h1.48v3.17h7.98Zm-8.44-5.48c.66,0,1.34-.03,2.02-.08v-4.47h-2.02v4.55Zm25.11-6.45v.88c-.02,.88-.02,1.97-.27,3.33l-1.47-.12c.22-1.2,.25-2.09,.25-2.89h-8.19v-1.19h9.67Zm1.58,4.92v1.17h-12.74v-1.17h5.11v-2.31h1.45v2.31h6.17Zm-1.55,2.33v3.47h-8.2v1.39h8.56v1.19h-10.05v-3.61h8.22v-1.23h-8.23v-1.2h9.7Zm14.35-7.81v14h-1.42v-14h1.42Zm-2.84,.27v13.05h-1.42v-6.75h-1.58c-.12,2.73-1.3,4.44-3.03,4.42-1.83,.02-3.02-1.91-3.02-4.94s1.19-4.94,3.02-4.92c1.7-.02,2.86,1.6,3.03,4.23h1.58v-5.09h1.42Zm-6.03,2.25c-1.02,0-1.64,1.3-1.64,3.53s.62,3.53,1.64,3.53,1.67-1.3,1.67-3.53-.64-3.53-1.67-3.53Zm26.73,8.48v1.22h-12.81v-1.22h5.61v-3.33h1.47v3.33h5.73Zm-5.7-9.05c0,2.22,2.44,4.3,5.14,4.75l-.64,1.22c-2.27-.45-4.35-1.85-5.28-3.78-.92,1.92-2.98,3.34-5.23,3.78l-.66-1.22c2.69-.45,5.11-2.53,5.11-4.75v-1.06h1.56v1.06Zm19.2,5.22v1.19h-12.81v-1.19h12.81Zm-1.61-6.86v3.45h-8.09v1.2h8.38v1.14h-9.84v-3.44h8.08v-1.19h-8.11v-1.17h9.59Zm.01,9.19v4.33h-9.51v-4.33h9.51Zm-8.05,1.19v1.94h6.58v-1.94h-6.58Zm26.72-4.02v1.22h-12.78v-1.22h5.64v-1.45h-4v-4.66h9.52v1.2h-8.05v2.23h8.22v1.22h-4.2v1.45h5.66Zm-1.41,5.95v1.2h-9.78v-4.69h9.66v1.2h-8.19v2.28h8.31Zm8.51-12.33c3.08,0,5,1,5,2.69s-1.92,2.64-5,2.64-5-.98-5-2.64,1.94-2.69,5-2.69Zm0,1.17c-2.16,0-3.48,.55-3.47,1.52-.02,.94,1.31,1.47,3.47,1.48,2.14-.02,3.47-.55,3.47-1.48s-1.33-1.52-3.47-1.52Zm4.83,7.69v4.67h-9.67v-4.67h9.67Zm-8.2,1.19v2.28h6.77v-2.28h-6.77Zm9.77-3.64v1.2h-12.77v-1.2h12.77Zm6.91-5.34l-.14,8.05h-1.55l-.14-8.05h1.83Zm-.91,11.42c-.61,0-1.12-.5-1.11-1.11-.02-.61,.5-1.11,1.11-1.11s1.11,.5,1.11,1.11-.52,1.11-1.11,1.11Z"/>
  <rect class="cls-3" x="27.62" y="309" width="473.77" height="90"/>
  <path class="cls-9" d="M55.08,328.91v3.13h1.78v1.07h-1.78v3.19h-1.3v-7.38h1.3Zm0,8v4.25h-1.3v-3.2h-6.79v-1.05h8.09Zm-7.88-7.23v1.83h3.21v-1.83h1.29v5.84h-5.77v-5.84h1.27Zm0,4.8h3.21v-1.94h-3.21v1.94Zm16.29-1.2v1.65h4.95v1.07h-11.17v-1.07h4.94v-1.65h1.29Zm-.64,3.61c2.65,0,4.22,.75,4.22,2.13s-1.57,2.13-4.22,2.12c-2.67,.01-4.25-.75-4.25-2.12s1.59-2.13,4.25-2.13Zm0,1c-1.89,0-2.94,.4-2.94,1.13s1.05,1.13,2.94,1.13,2.93-.4,2.93-1.13-1.07-1.13-2.93-1.13Zm4.59-8.41v1.04h-3.72c.18,1.17,1.92,2.16,4.14,2.38l-.46,1.02c-2.13-.25-3.88-1.12-4.55-2.42-.67,1.3-2.42,2.17-4.54,2.42l-.46-1.02c2.21-.22,3.94-1.2,4.13-2.38h-3.68v-1.04h9.15Zm6,1.27c0,1.72,1.11,3.25,2.97,3.86l-.71,1.01c-1.35-.48-2.34-1.43-2.87-2.65-.53,1.4-1.6,2.49-3.08,3.02l-.7-1.04c1.96-.67,3.09-2.3,3.1-4.14v-1.2h1.29v1.15Zm5.87-1.83v7.23h-1.3v-3.68h-2.58v-1.07h2.58v-2.49h1.3Zm-4.1,7.57c2.57,0,4.14,.85,4.14,2.34s-1.57,2.32-4.14,2.31c-2.57,.01-4.16-.83-4.14-2.31-.01-1.49,1.57-2.34,4.14-2.34Zm0,1.01c-1.79,0-2.86,.48-2.86,1.33s1.07,1.29,2.86,1.29,2.86-.46,2.86-1.29-1.07-1.33-2.86-1.33Z"/>
  <path class="cls-9" d="M58.12,336.64c-.35,0-.66-.44-.65-.97,0-.53,.29-.97,.65-.97s.65,.44,.65,.97-.3,.97-.65,.97Z"/>
  <path class="cls-9" d="M97.39,340.14c-2.05,0-3.51-1.11-3.57-2.72h1.53c.05,.88,.92,1.42,2.02,1.42,1.19,0,2.06-.66,2.06-1.61s-.82-1.68-2.23-1.68h-.85v-1.23h.85c1.12,0,1.91-.63,1.91-1.57s-.67-1.52-1.72-1.52c-1,0-1.87,.55-1.91,1.45h-1.45c.04-1.61,1.53-2.71,3.38-2.71,1.94,0,3.17,1.23,3.16,2.69,.01,1.12-.68,1.94-1.75,2.2v.07c1.35,.19,2.13,1.09,2.13,2.35,0,1.65-1.52,2.86-3.57,2.86Zm15.72-4.81v1.04h-4.87v2.26h-1.29v-2.26h-5.06v-1.04h11.21Zm-1.24,4.53v1.05h-8.57v-3.35h1.29v2.3h7.29Zm-7.21-10.55v1.49h5.67v-1.49h1.3v4.95h-8.26v-4.95h1.29Zm0,3.91h5.67v-1.45h-5.67v1.45Zm22.42-4.28v8.97h-1.3v-4.61h-2.34v-1.05h2.34v-3.31h1.3Zm.33,10.92v1.05h-8.28v-3.81h1.3v2.76h6.99Zm-6.15-8.45c0,1.53,1.11,3.06,2.95,3.68l-.67,1.04c-1.37-.49-2.39-1.47-2.93-2.68-.53,1.35-1.61,2.43-3.06,2.95l-.67-1.05c1.89-.64,3.05-2.26,3.05-3.94v-.48h-2.65v-1.07h6.6v1.07h-2.62v.48Z"/>
  <path class="cls-7" d="M461.95,331.52c-1.81,1.8-1.96,4.68-.26,6.58,.71,.79,1.45,1.6,2.11,2.25,1.57,1.56,3.97,3.59,5.09,4.52,.17,.15,.39,.21,.61,.2,.21,.01,.43-.05,.61-.2,1.11-.93,3.52-2.95,5.09-4.52,.66-.66,1.41-1.46,2.11-2.25,1.7-1.9,1.55-4.78-.26-6.58-1.95-1.93-5.1-1.93-7.04,0l-.5,.5-.51-.5c-1.95-1.93-5.1-1.93-7.04,0Z"/>
  <path class="cls-9" d="M485.93,332.1v9.9h-1.24v-8.61h-.05l-2.41,1.6v-1.24l2.46-1.64h1.24Zm2.36,9.9v-.9s3.36-3.55,3.36-3.55c1.18-1.24,1.74-1.91,1.74-2.83,0-1.01-.86-1.68-1.97-1.68-1.18,0-1.93,.75-1.93,1.86h-1.16c-.01-1.75,1.34-2.93,3.13-2.93s3.08,1.2,3.08,2.75c0,1.11-.52,1.97-2.27,3.77l-2.27,2.34v.08h4.72v1.09h-6.43Z"/>
  <path class="cls-10" d="M57.14,364.33v14.03h-1.48v-14.03h1.48Zm-4.28,1.27v5.11h-5.03v3.06c2.27,0,4.25-.11,6.59-.5l.14,1.22c-2.48,.42-4.59,.52-7.06,.52h-1.19v-5.48h5.03v-2.72h-5.05v-1.2h6.56Zm17.84-1.27v14.03h-1.47v-7.7h-3.09v4.23h-6.56v-9.48h1.5v3.58h3.61v-3.58h1.45v4.03h3.09v-5.11h1.47Zm-9.63,9.34h3.61v-3.52h-3.61v3.52Zm23.02-8.98v1.12h-2.03v2.38h1.97v1.14h-10.27v-1.14h1.98v-2.38h-2.05v-1.12h10.39Zm1.2,5.66v1.19h-5.66v1.2h4.05v3.2h-8.16v1.12h8.55v1.13h-10v-3.3h8.14v-1.05h-8.16v-1.11h4.09v-1.2h-5.62v-1.19h12.77Zm-8.08-2.16h3.36v-2.38h-3.36v2.38Zm19.58-2.63c-.02,1.86,2.27,3.61,5.02,3.97l-.58,1.22c-2.29-.37-4.31-1.55-5.2-3.2-.92,1.66-2.93,2.84-5.2,3.2l-.59-1.22c2.75-.36,5-2.09,5.02-3.97v-.77h1.55v.77Zm5.59,6.56v1.22h-5.69v4.98h-1.45v-4.98h-5.62v-1.22h12.77Zm12.34-7.8v14.03h-1.48v-14.03h1.48Zm-9.33,1.17v3.59h3.77v-3.59h1.47v9.5h-6.72v-9.5h1.48Zm0,8.28h3.77v-3.52h-3.77v3.52Zm22.15-9.45v5.58h2.17v1.23h-2.17v7.17h-1.49v-13.98h1.49Zm-3.66,1.47c-.02,4.05-1.8,7.66-6.41,9.94l-.83-1.16c3.51-1.75,5.41-4.28,5.72-7.55h-5.02v-1.23h6.53Zm21.19,5.17v1.22h-9.75v-6.61h9.62v1.22h-8.16v4.17h8.28Zm1.47,4.28v1.23h-12.81v-1.23h12.81Zm12.29-10.92v14.03h-1.49v-14.03h1.49Zm-4,1.3v1.23h-5.2v6.8c2.66,0,4.35-.08,6.33-.44l.16,1.23c-2.09,.38-3.92,.47-6.83,.47h-1.16v-9.3h6.7Zm9.71-.25c1.9,0,3.29,1.61,3.52,4.2h2.89v-5.25h1.47v14.03h-1.47v-7.58h-2.88c-.16,2.73-1.59,4.42-3.53,4.42-2.09,0-3.56-1.91-3.55-4.92-.01-3,1.45-4.91,3.55-4.91Zm0,1.33c-1.27,0-2.14,1.38-2.14,3.58s.88,3.59,2.14,3.59,2.14-1.38,2.14-3.59-.88-3.58-2.14-3.58Zm24.3-2.39v4.19h2.03v1.25h-2.03v4.86h-1.49v-10.3h1.49Zm.59,12.52v1.2h-9.47v-4.5h1.48v3.3h7.98Zm-7.66-11.55c2.11,0,3.72,1.44,3.73,3.48-.01,2.03-1.62,3.48-3.73,3.48s-3.73-1.45-3.72-3.48c-.01-2.05,1.61-3.48,3.72-3.48Zm0,1.3c-1.28,0-2.28,.89-2.27,2.19-.01,1.3,.99,2.19,2.27,2.19s2.28-.89,2.28-2.19-.98-2.19-2.28-2.19Zm21.24-2.25v8.33h-1.48v-3.55h-2.61v-1.22h2.61v-3.56h1.48Zm-4.69,8.72c2.94,0,4.73,.97,4.73,2.64s-1.8,2.62-4.73,2.64c-2.94-.02-4.75-.97-4.73-2.64-.02-1.67,1.8-2.64,4.73-2.64Zm0,1.16c-2.05,0-3.27,.53-3.27,1.48s1.22,1.48,3.27,1.47c2.05,.02,3.27-.53,3.27-1.47s-1.22-1.48-3.27-1.48Zm-1.97-7.41c0,1.78,1.27,3.5,3.38,4.22l-.76,1.17c-1.57-.55-2.73-1.66-3.33-3.05-.62,1.57-1.84,2.83-3.51,3.44l-.78-1.19c2.17-.75,3.5-2.64,3.5-4.58v-.31h-3.03v-1.2h7.55v1.2h-3v.3Zm16.65,2.02v1.2h-2.73v1.77c1.24-.05,2.48-.14,3.62-.27l.11,1.09c-2.98,.41-6.27,.48-8.89,.48l-.2-1.19c1.2,0,2.53-.02,3.89-.06v-1.83h-2.64v-4.8h6.72v1.2h-5.23v2.39h5.36Zm3.45-4.48v10.5h-1.48v-10.5h1.48Zm.44,12.5v1.2h-9.67v-3.95h1.48v2.75h8.19Zm16.41-6.22v1.22h-9.83v-6.28h1.49v5.06h8.34Zm1.45,4.62v1.25h-12.81v-1.25h12.81Zm4.98-10.02c-.01,2.84-.86,4.81-3.2,6.48l-.97-.95c1.73-1.16,2.55-2.4,2.75-4.33h-2.33v-1.2h3.75Zm4.03,0c0,2.89-.7,5.16-3.03,7.05l-1.05-.83c1.74-1.41,2.49-2.95,2.67-5.02h-2.11v-1.2h3.52Zm3.28-.88v8.05h-1.48v-8.05h1.48Zm0,8.67v5.14h-9.27v-5.14h9.27Zm-7.81,1.19v2.75h6.36v-2.75h-6.36Zm21.32-9.88v14.03h-1.48v-14.03h1.48Zm-7.48,1.05c2.08,0,3.61,1.91,3.61,4.91s-1.53,4.92-3.61,4.92-3.62-1.91-3.62-4.92,1.51-4.91,3.62-4.91Zm0,1.33c-1.3,0-2.19,1.38-2.19,3.58s.89,3.59,2.19,3.59,2.17-1.38,2.17-3.59-.89-3.58-2.17-3.58Zm11.52-.92v7.78c1.44-.02,2.8-.12,4.34-.44l.2,1.27c-1.83,.38-3.38,.45-5.11,.45h-.92v-9.06h1.48Zm9.91-1.45v14h-1.41v-14h1.41Zm-3,.31v13h-1.41v-7.48h-3.06v-1.22h3.06v-4.3h1.41Zm6.07,12.47c-.61,0-1.12-.5-1.11-1.11-.02-.61,.5-1.11,1.11-1.11s1.11,.5,1.11,1.11-.52,1.11-1.11,1.11Z"/>
</svg>